G04 #@! TF.GenerationSoftware,KiCad,Pcbnew,(5.1.2)-1*
G04 #@! TF.CreationDate,2020-06-02T10:02:34+03:00*
G04 #@! TF.ProjectId,improve-rgb2tv,696d7072-6f76-4652-9d72-67623274762e,rev?*
G04 #@! TF.SameCoordinates,Original*
G04 #@! TF.FileFunction,Legend,Bot*
G04 #@! TF.FilePolarity,Positive*
%FSLAX46Y46*%
G04 Gerber Fmt 4.6, Leading zero omitted, Abs format (unit mm)*
G04 Created by KiCad (PCBNEW (5.1.2)-1) date 2020-06-02 10:02:34*
%MOMM*%
%LPD*%
G04 APERTURE LIST*
%ADD10C,0.120000*%
G04 APERTURE END LIST*
D10*
X186286571Y-113545785D02*
X186036571Y-114295785D01*
X185786571Y-113545785D01*
X185250857Y-114260071D02*
X185322285Y-114295785D01*
X185465142Y-114295785D01*
X185536571Y-114260071D01*
X185572285Y-114188642D01*
X185572285Y-113902928D01*
X185536571Y-113831500D01*
X185465142Y-113795785D01*
X185322285Y-113795785D01*
X185250857Y-113831500D01*
X185215142Y-113902928D01*
X185215142Y-113974357D01*
X185572285Y-114045785D01*
X184572285Y-114260071D02*
X184643714Y-114295785D01*
X184786571Y-114295785D01*
X184858000Y-114260071D01*
X184893714Y-114224357D01*
X184929428Y-114152928D01*
X184929428Y-113938642D01*
X184893714Y-113867214D01*
X184858000Y-113831500D01*
X184786571Y-113795785D01*
X184643714Y-113795785D01*
X184572285Y-113831500D01*
X184358000Y-113795785D02*
X184072285Y-113795785D01*
X184250857Y-113545785D02*
X184250857Y-114188642D01*
X184215142Y-114260071D01*
X184143714Y-114295785D01*
X184072285Y-114295785D01*
X183715142Y-114295785D02*
X183786571Y-114260071D01*
X183822285Y-114224357D01*
X183858000Y-114152928D01*
X183858000Y-113938642D01*
X183822285Y-113867214D01*
X183786571Y-113831500D01*
X183715142Y-113795785D01*
X183608000Y-113795785D01*
X183536571Y-113831500D01*
X183500857Y-113867214D01*
X183465142Y-113938642D01*
X183465142Y-114152928D01*
X183500857Y-114224357D01*
X183536571Y-114260071D01*
X183608000Y-114295785D01*
X183715142Y-114295785D01*
X183143714Y-114295785D02*
X183143714Y-113795785D01*
X183143714Y-113938642D02*
X183108000Y-113867214D01*
X183072285Y-113831500D01*
X183000857Y-113795785D01*
X182929428Y-113795785D01*
X182679428Y-114010071D02*
X182108000Y-114010071D01*
X181607999Y-113545785D02*
X181536571Y-113545785D01*
X181465142Y-113581500D01*
X181429428Y-113617214D01*
X181393714Y-113688642D01*
X181358000Y-113831500D01*
X181358000Y-114010071D01*
X181393714Y-114152928D01*
X181429428Y-114224357D01*
X181465142Y-114260071D01*
X181536571Y-114295785D01*
X181607999Y-114295785D01*
X181679428Y-114260071D01*
X181715142Y-114224357D01*
X181750857Y-114152928D01*
X181786571Y-114010071D01*
X181786571Y-113831500D01*
X181750857Y-113688642D01*
X181715142Y-113617214D01*
X181679428Y-113581500D01*
X181607999Y-113545785D01*
X180715142Y-113545785D02*
X180857999Y-113545785D01*
X180929428Y-113581500D01*
X180965142Y-113617214D01*
X181036571Y-113724357D01*
X181072285Y-113867214D01*
X181072285Y-114152928D01*
X181036571Y-114224357D01*
X181000857Y-114260071D01*
X180929428Y-114295785D01*
X180786571Y-114295785D01*
X180715142Y-114260071D01*
X180679428Y-114224357D01*
X180643714Y-114152928D01*
X180643714Y-113974357D01*
X180679428Y-113902928D01*
X180715142Y-113867214D01*
X180786571Y-113831500D01*
X180929428Y-113831500D01*
X181000857Y-113867214D01*
X181036571Y-113902928D01*
X181072285Y-113974357D01*
X179893714Y-114224357D02*
X179929428Y-114260071D01*
X180036571Y-114295785D01*
X180107999Y-114295785D01*
X180215142Y-114260071D01*
X180286571Y-114188642D01*
X180322285Y-114117214D01*
X180357999Y-113974357D01*
X180357999Y-113867214D01*
X180322285Y-113724357D01*
X180286571Y-113652928D01*
X180215142Y-113581500D01*
X180107999Y-113545785D01*
X180036571Y-113545785D01*
X179929428Y-113581500D01*
X179893714Y-113617214D01*
X179072285Y-113795785D02*
X178893714Y-114295785D01*
X178715142Y-113795785D01*
X178429428Y-114295785D02*
X178429428Y-113795785D01*
X178429428Y-113545785D02*
X178465142Y-113581500D01*
X178429428Y-113617214D01*
X178393714Y-113581500D01*
X178429428Y-113545785D01*
X178429428Y-113617214D01*
X177750857Y-114295785D02*
X177750857Y-113545785D01*
X177750857Y-114260071D02*
X177822285Y-114295785D01*
X177965142Y-114295785D01*
X178036571Y-114260071D01*
X178072285Y-114224357D01*
X178108000Y-114152928D01*
X178108000Y-113938642D01*
X178072285Y-113867214D01*
X178036571Y-113831500D01*
X177965142Y-113795785D01*
X177822285Y-113795785D01*
X177750857Y-113831500D01*
X177108000Y-114260071D02*
X177179428Y-114295785D01*
X177322285Y-114295785D01*
X177393714Y-114260071D01*
X177429428Y-114188642D01*
X177429428Y-113902928D01*
X177393714Y-113831500D01*
X177322285Y-113795785D01*
X177179428Y-113795785D01*
X177108000Y-113831500D01*
X177072285Y-113902928D01*
X177072285Y-113974357D01*
X177429428Y-114045785D01*
X176643714Y-114295785D02*
X176715142Y-114260071D01*
X176750857Y-114224357D01*
X176786571Y-114152928D01*
X176786571Y-113938642D01*
X176750857Y-113867214D01*
X176715142Y-113831500D01*
X176643714Y-113795785D01*
X176536571Y-113795785D01*
X176465142Y-113831500D01*
X176429428Y-113867214D01*
X176393714Y-113938642D01*
X176393714Y-114152928D01*
X176429428Y-114224357D01*
X176465142Y-114260071D01*
X176536571Y-114295785D01*
X176643714Y-114295785D01*
X175500857Y-114295785D02*
X175500857Y-113795785D01*
X175500857Y-113867214D02*
X175465142Y-113831500D01*
X175393714Y-113795785D01*
X175286571Y-113795785D01*
X175215142Y-113831500D01*
X175179428Y-113902928D01*
X175179428Y-114295785D01*
X175179428Y-113902928D02*
X175143714Y-113831500D01*
X175072285Y-113795785D01*
X174965142Y-113795785D01*
X174893714Y-113831500D01*
X174858000Y-113902928D01*
X174858000Y-114295785D01*
X174393714Y-114295785D02*
X174465142Y-114260071D01*
X174500857Y-114224357D01*
X174536571Y-114152928D01*
X174536571Y-113938642D01*
X174500857Y-113867214D01*
X174465142Y-113831500D01*
X174393714Y-113795785D01*
X174286571Y-113795785D01*
X174215142Y-113831500D01*
X174179428Y-113867214D01*
X174143714Y-113938642D01*
X174143714Y-114152928D01*
X174179428Y-114224357D01*
X174215142Y-114260071D01*
X174286571Y-114295785D01*
X174393714Y-114295785D01*
X173500857Y-114295785D02*
X173500857Y-113545785D01*
X173500857Y-114260071D02*
X173572285Y-114295785D01*
X173715142Y-114295785D01*
X173786571Y-114260071D01*
X173822285Y-114224357D01*
X173858000Y-114152928D01*
X173858000Y-113938642D01*
X173822285Y-113867214D01*
X173786571Y-113831500D01*
X173715142Y-113795785D01*
X173572285Y-113795785D01*
X173500857Y-113831500D01*
X186179428Y-115540785D02*
X186179428Y-114790785D01*
X186000857Y-114790785D01*
X185893714Y-114826500D01*
X185822285Y-114897928D01*
X185786571Y-114969357D01*
X185750857Y-115112214D01*
X185750857Y-115219357D01*
X185786571Y-115362214D01*
X185822285Y-115433642D01*
X185893714Y-115505071D01*
X186000857Y-115540785D01*
X186179428Y-115540785D01*
X185143714Y-115505071D02*
X185215142Y-115540785D01*
X185358000Y-115540785D01*
X185429428Y-115505071D01*
X185465142Y-115433642D01*
X185465142Y-115147928D01*
X185429428Y-115076500D01*
X185358000Y-115040785D01*
X185215142Y-115040785D01*
X185143714Y-115076500D01*
X185108000Y-115147928D01*
X185108000Y-115219357D01*
X185465142Y-115290785D01*
X184822285Y-115505071D02*
X184750857Y-115540785D01*
X184608000Y-115540785D01*
X184536571Y-115505071D01*
X184500857Y-115433642D01*
X184500857Y-115397928D01*
X184536571Y-115326500D01*
X184608000Y-115290785D01*
X184715142Y-115290785D01*
X184786571Y-115255071D01*
X184822285Y-115183642D01*
X184822285Y-115147928D01*
X184786571Y-115076500D01*
X184715142Y-115040785D01*
X184608000Y-115040785D01*
X184536571Y-115076500D01*
X184179428Y-115540785D02*
X184179428Y-115040785D01*
X184179428Y-114790785D02*
X184215142Y-114826500D01*
X184179428Y-114862214D01*
X184143714Y-114826500D01*
X184179428Y-114790785D01*
X184179428Y-114862214D01*
X183500857Y-115040785D02*
X183500857Y-115647928D01*
X183536571Y-115719357D01*
X183572285Y-115755071D01*
X183643714Y-115790785D01*
X183750857Y-115790785D01*
X183822285Y-115755071D01*
X183500857Y-115505071D02*
X183572285Y-115540785D01*
X183715142Y-115540785D01*
X183786571Y-115505071D01*
X183822285Y-115469357D01*
X183858000Y-115397928D01*
X183858000Y-115183642D01*
X183822285Y-115112214D01*
X183786571Y-115076500D01*
X183715142Y-115040785D01*
X183572285Y-115040785D01*
X183500857Y-115076500D01*
X183143714Y-115040785D02*
X183143714Y-115540785D01*
X183143714Y-115112214D02*
X183108000Y-115076500D01*
X183036571Y-115040785D01*
X182929428Y-115040785D01*
X182858000Y-115076500D01*
X182822285Y-115147928D01*
X182822285Y-115540785D01*
X181893714Y-115540785D02*
X181893714Y-114790785D01*
X181893714Y-115076500D02*
X181822285Y-115040785D01*
X181679428Y-115040785D01*
X181608000Y-115076500D01*
X181572285Y-115112214D01*
X181536571Y-115183642D01*
X181536571Y-115397928D01*
X181572285Y-115469357D01*
X181608000Y-115505071D01*
X181679428Y-115540785D01*
X181822285Y-115540785D01*
X181893714Y-115505071D01*
X181286571Y-115040785D02*
X181108000Y-115540785D01*
X180929428Y-115040785D02*
X181108000Y-115540785D01*
X181179428Y-115719357D01*
X181215142Y-115755071D01*
X181286571Y-115790785D01*
X180072285Y-115540785D02*
X180072285Y-114790785D01*
X179715142Y-115540785D02*
X179715142Y-115040785D01*
X179715142Y-115112214D02*
X179679428Y-115076500D01*
X179608000Y-115040785D01*
X179500857Y-115040785D01*
X179429428Y-115076500D01*
X179393714Y-115147928D01*
X179393714Y-115540785D01*
X179393714Y-115147928D02*
X179358000Y-115076500D01*
X179286571Y-115040785D01*
X179179428Y-115040785D01*
X179108000Y-115076500D01*
X179072285Y-115147928D01*
X179072285Y-115540785D01*
X178715142Y-115040785D02*
X178715142Y-115790785D01*
X178715142Y-115076500D02*
X178643714Y-115040785D01*
X178500857Y-115040785D01*
X178429428Y-115076500D01*
X178393714Y-115112214D01*
X178358000Y-115183642D01*
X178358000Y-115397928D01*
X178393714Y-115469357D01*
X178429428Y-115505071D01*
X178500857Y-115540785D01*
X178643714Y-115540785D01*
X178715142Y-115505071D01*
X178036571Y-115540785D02*
X178036571Y-115040785D01*
X178036571Y-115183642D02*
X178000857Y-115112214D01*
X177965142Y-115076500D01*
X177893714Y-115040785D01*
X177822285Y-115040785D01*
X177465142Y-115540785D02*
X177536571Y-115505071D01*
X177572285Y-115469357D01*
X177608000Y-115397928D01*
X177608000Y-115183642D01*
X177572285Y-115112214D01*
X177536571Y-115076500D01*
X177465142Y-115040785D01*
X177358000Y-115040785D01*
X177286571Y-115076500D01*
X177250857Y-115112214D01*
X177215142Y-115183642D01*
X177215142Y-115397928D01*
X177250857Y-115469357D01*
X177286571Y-115505071D01*
X177358000Y-115540785D01*
X177465142Y-115540785D01*
X176965142Y-115040785D02*
X176786571Y-115540785D01*
X176608000Y-115040785D01*
X176036571Y-115505071D02*
X176108000Y-115540785D01*
X176250857Y-115540785D01*
X176322285Y-115505071D01*
X176358000Y-115433642D01*
X176358000Y-115147928D01*
X176322285Y-115076500D01*
X176250857Y-115040785D01*
X176108000Y-115040785D01*
X176036571Y-115076500D01*
X176000857Y-115147928D01*
X176000857Y-115219357D01*
X176358000Y-115290785D01*
X186286571Y-116035785D02*
X185858000Y-116035785D01*
X186072285Y-116785785D02*
X186072285Y-116035785D01*
X185608000Y-116785785D02*
X185608000Y-116035785D01*
X185286571Y-116785785D02*
X185286571Y-116392928D01*
X185322285Y-116321500D01*
X185393714Y-116285785D01*
X185500857Y-116285785D01*
X185572285Y-116321500D01*
X185608000Y-116357214D01*
X184929428Y-116785785D02*
X184929428Y-116285785D01*
X184929428Y-116035785D02*
X184965142Y-116071500D01*
X184929428Y-116107214D01*
X184893714Y-116071500D01*
X184929428Y-116035785D01*
X184929428Y-116107214D01*
X184608000Y-116750071D02*
X184536571Y-116785785D01*
X184393714Y-116785785D01*
X184322285Y-116750071D01*
X184286571Y-116678642D01*
X184286571Y-116642928D01*
X184322285Y-116571500D01*
X184393714Y-116535785D01*
X184500857Y-116535785D01*
X184572285Y-116500071D01*
X184608000Y-116428642D01*
X184608000Y-116392928D01*
X184572285Y-116321500D01*
X184500857Y-116285785D01*
X184393714Y-116285785D01*
X184322285Y-116321500D01*
X183072285Y-116750071D02*
X183143714Y-116785785D01*
X183286571Y-116785785D01*
X183358000Y-116750071D01*
X183393714Y-116714357D01*
X183429428Y-116642928D01*
X183429428Y-116428642D01*
X183393714Y-116357214D01*
X183358000Y-116321500D01*
X183286571Y-116285785D01*
X183143714Y-116285785D01*
X183072285Y-116321500D01*
X182429428Y-116285785D02*
X182429428Y-116785785D01*
X182750857Y-116285785D02*
X182750857Y-116678642D01*
X182715142Y-116750071D01*
X182643714Y-116785785D01*
X182536571Y-116785785D01*
X182465142Y-116750071D01*
X182429428Y-116714357D01*
X182108000Y-116750071D02*
X182036571Y-116785785D01*
X181893714Y-116785785D01*
X181822285Y-116750071D01*
X181786571Y-116678642D01*
X181786571Y-116642928D01*
X181822285Y-116571500D01*
X181893714Y-116535785D01*
X182000857Y-116535785D01*
X182072285Y-116500071D01*
X182108000Y-116428642D01*
X182108000Y-116392928D01*
X182072285Y-116321500D01*
X182000857Y-116285785D01*
X181893714Y-116285785D01*
X181822285Y-116321500D01*
X181572285Y-116285785D02*
X181286571Y-116285785D01*
X181465142Y-116035785D02*
X181465142Y-116678642D01*
X181429428Y-116750071D01*
X181358000Y-116785785D01*
X181286571Y-116785785D01*
X180929428Y-116785785D02*
X181000857Y-116750071D01*
X181036571Y-116714357D01*
X181072285Y-116642928D01*
X181072285Y-116428642D01*
X181036571Y-116357214D01*
X181000857Y-116321500D01*
X180929428Y-116285785D01*
X180822285Y-116285785D01*
X180750857Y-116321500D01*
X180715142Y-116357214D01*
X180679428Y-116428642D01*
X180679428Y-116642928D01*
X180715142Y-116714357D01*
X180750857Y-116750071D01*
X180822285Y-116785785D01*
X180929428Y-116785785D01*
X180358000Y-116785785D02*
X180358000Y-116285785D01*
X180358000Y-116357214D02*
X180322285Y-116321500D01*
X180250857Y-116285785D01*
X180143714Y-116285785D01*
X180072285Y-116321500D01*
X180036571Y-116392928D01*
X180036571Y-116785785D01*
X180036571Y-116392928D02*
X180000857Y-116321500D01*
X179929428Y-116285785D01*
X179822285Y-116285785D01*
X179750857Y-116321500D01*
X179715142Y-116392928D01*
X179715142Y-116785785D01*
X178786571Y-116785785D02*
X178786571Y-116035785D01*
X178786571Y-116321500D02*
X178715142Y-116285785D01*
X178572285Y-116285785D01*
X178500857Y-116321500D01*
X178465142Y-116357214D01*
X178429428Y-116428642D01*
X178429428Y-116642928D01*
X178465142Y-116714357D01*
X178500857Y-116750071D01*
X178572285Y-116785785D01*
X178715142Y-116785785D01*
X178786571Y-116750071D01*
X178000857Y-116785785D02*
X178072285Y-116750071D01*
X178108000Y-116714357D01*
X178143714Y-116642928D01*
X178143714Y-116428642D01*
X178108000Y-116357214D01*
X178072285Y-116321500D01*
X178000857Y-116285785D01*
X177893714Y-116285785D01*
X177822285Y-116321500D01*
X177786571Y-116357214D01*
X177750857Y-116428642D01*
X177750857Y-116642928D01*
X177786571Y-116714357D01*
X177822285Y-116750071D01*
X177893714Y-116785785D01*
X178000857Y-116785785D01*
X177108000Y-116785785D02*
X177108000Y-116392928D01*
X177143714Y-116321500D01*
X177215142Y-116285785D01*
X177358000Y-116285785D01*
X177429428Y-116321500D01*
X177108000Y-116750071D02*
X177179428Y-116785785D01*
X177358000Y-116785785D01*
X177429428Y-116750071D01*
X177465142Y-116678642D01*
X177465142Y-116607214D01*
X177429428Y-116535785D01*
X177358000Y-116500071D01*
X177179428Y-116500071D01*
X177108000Y-116464357D01*
X176750857Y-116785785D02*
X176750857Y-116285785D01*
X176750857Y-116428642D02*
X176715142Y-116357214D01*
X176679428Y-116321500D01*
X176608000Y-116285785D01*
X176536571Y-116285785D01*
X175965142Y-116785785D02*
X175965142Y-116035785D01*
X175965142Y-116750071D02*
X176036571Y-116785785D01*
X176179428Y-116785785D01*
X176250857Y-116750071D01*
X176286571Y-116714357D01*
X176322285Y-116642928D01*
X176322285Y-116428642D01*
X176286571Y-116357214D01*
X176250857Y-116321500D01*
X176179428Y-116285785D01*
X176036571Y-116285785D01*
X175965142Y-116321500D01*
X175036571Y-116785785D02*
X175036571Y-116035785D01*
X175036571Y-116321500D02*
X174965142Y-116285785D01*
X174822285Y-116285785D01*
X174750857Y-116321500D01*
X174715142Y-116357214D01*
X174679428Y-116428642D01*
X174679428Y-116642928D01*
X174715142Y-116714357D01*
X174750857Y-116750071D01*
X174822285Y-116785785D01*
X174965142Y-116785785D01*
X175036571Y-116750071D01*
X174429428Y-116285785D02*
X174250857Y-116785785D01*
X174072285Y-116285785D02*
X174250857Y-116785785D01*
X174322285Y-116964357D01*
X174358000Y-117000071D01*
X174429428Y-117035785D01*
X172893714Y-116785785D02*
X172893714Y-116035785D01*
X172893714Y-116750071D02*
X172965142Y-116785785D01*
X173108000Y-116785785D01*
X173179428Y-116750071D01*
X173215142Y-116714357D01*
X173250857Y-116642928D01*
X173250857Y-116428642D01*
X173215142Y-116357214D01*
X173179428Y-116321500D01*
X173108000Y-116285785D01*
X172965142Y-116285785D01*
X172893714Y-116321500D01*
X172250857Y-116750071D02*
X172322285Y-116785785D01*
X172465142Y-116785785D01*
X172536571Y-116750071D01*
X172572285Y-116678642D01*
X172572285Y-116392928D01*
X172536571Y-116321500D01*
X172465142Y-116285785D01*
X172322285Y-116285785D01*
X172250857Y-116321500D01*
X172215142Y-116392928D01*
X172215142Y-116464357D01*
X172572285Y-116535785D01*
X171929428Y-116750071D02*
X171858000Y-116785785D01*
X171715142Y-116785785D01*
X171643714Y-116750071D01*
X171608000Y-116678642D01*
X171608000Y-116642928D01*
X171643714Y-116571500D01*
X171715142Y-116535785D01*
X171822285Y-116535785D01*
X171893714Y-116500071D01*
X171929428Y-116428642D01*
X171929428Y-116392928D01*
X171893714Y-116321500D01*
X171822285Y-116285785D01*
X171715142Y-116285785D01*
X171643714Y-116321500D01*
X170965142Y-116785785D02*
X170965142Y-116392928D01*
X171000857Y-116321500D01*
X171072285Y-116285785D01*
X171215142Y-116285785D01*
X171286571Y-116321500D01*
X170965142Y-116750071D02*
X171036571Y-116785785D01*
X171215142Y-116785785D01*
X171286571Y-116750071D01*
X171322285Y-116678642D01*
X171322285Y-116607214D01*
X171286571Y-116535785D01*
X171215142Y-116500071D01*
X171036571Y-116500071D01*
X170965142Y-116464357D01*
X170643714Y-116750071D02*
X170572285Y-116785785D01*
X170429428Y-116785785D01*
X170358000Y-116750071D01*
X170322285Y-116678642D01*
X170322285Y-116642928D01*
X170358000Y-116571500D01*
X170429428Y-116535785D01*
X170536571Y-116535785D01*
X170608000Y-116500071D01*
X170643714Y-116428642D01*
X170643714Y-116392928D01*
X170608000Y-116321500D01*
X170536571Y-116285785D01*
X170429428Y-116285785D01*
X170358000Y-116321500D01*
X170108000Y-116285785D02*
X169822285Y-116285785D01*
X170000857Y-116035785D02*
X170000857Y-116678642D01*
X169965142Y-116750071D01*
X169893714Y-116785785D01*
X169822285Y-116785785D01*
X169286571Y-116750071D02*
X169358000Y-116785785D01*
X169500857Y-116785785D01*
X169572285Y-116750071D01*
X169608000Y-116678642D01*
X169608000Y-116392928D01*
X169572285Y-116321500D01*
X169500857Y-116285785D01*
X169358000Y-116285785D01*
X169286571Y-116321500D01*
X169250857Y-116392928D01*
X169250857Y-116464357D01*
X169608000Y-116535785D01*
X168929428Y-116785785D02*
X168929428Y-116285785D01*
X168929428Y-116428642D02*
X168893714Y-116357214D01*
X168858000Y-116321500D01*
X168786571Y-116285785D01*
X168715142Y-116285785D01*
X186179428Y-118030785D02*
X186179428Y-117280785D01*
X185858000Y-118030785D02*
X185858000Y-117637928D01*
X185893714Y-117566500D01*
X185965142Y-117530785D01*
X186072285Y-117530785D01*
X186143714Y-117566500D01*
X186179428Y-117602214D01*
X185608000Y-117530785D02*
X185322285Y-117530785D01*
X185500857Y-117280785D02*
X185500857Y-117923642D01*
X185465142Y-117995071D01*
X185393714Y-118030785D01*
X185322285Y-118030785D01*
X185179428Y-117530785D02*
X184893714Y-117530785D01*
X185072285Y-117280785D02*
X185072285Y-117923642D01*
X185036571Y-117995071D01*
X184965142Y-118030785D01*
X184893714Y-118030785D01*
X184643714Y-117530785D02*
X184643714Y-118280785D01*
X184643714Y-117566500D02*
X184572285Y-117530785D01*
X184429428Y-117530785D01*
X184358000Y-117566500D01*
X184322285Y-117602214D01*
X184286571Y-117673642D01*
X184286571Y-117887928D01*
X184322285Y-117959357D01*
X184358000Y-117995071D01*
X184429428Y-118030785D01*
X184572285Y-118030785D01*
X184643714Y-117995071D01*
X184000857Y-117995071D02*
X183929428Y-118030785D01*
X183786571Y-118030785D01*
X183715142Y-117995071D01*
X183679428Y-117923642D01*
X183679428Y-117887928D01*
X183715142Y-117816500D01*
X183786571Y-117780785D01*
X183893714Y-117780785D01*
X183965142Y-117745071D01*
X184000857Y-117673642D01*
X184000857Y-117637928D01*
X183965142Y-117566500D01*
X183893714Y-117530785D01*
X183786571Y-117530785D01*
X183715142Y-117566500D01*
X183358000Y-117959357D02*
X183322285Y-117995071D01*
X183358000Y-118030785D01*
X183393714Y-117995071D01*
X183358000Y-117959357D01*
X183358000Y-118030785D01*
X183358000Y-117566500D02*
X183322285Y-117602214D01*
X183358000Y-117637928D01*
X183393714Y-117602214D01*
X183358000Y-117566500D01*
X183358000Y-117637928D01*
X182465142Y-117245071D02*
X183108000Y-118209357D01*
X181679428Y-117245071D02*
X182322285Y-118209357D01*
X181500857Y-117530785D02*
X181108000Y-117530785D01*
X181500857Y-118030785D01*
X181108000Y-118030785D01*
X180893714Y-118030785D02*
X180500857Y-117530785D01*
X180893714Y-117530785D02*
X180500857Y-118030785D01*
X180215142Y-117745071D02*
X179643714Y-117745071D01*
X179286571Y-117530785D02*
X179286571Y-118280785D01*
X179286571Y-117566500D02*
X179215142Y-117530785D01*
X179072285Y-117530785D01*
X179000857Y-117566500D01*
X178965142Y-117602214D01*
X178929428Y-117673642D01*
X178929428Y-117887928D01*
X178965142Y-117959357D01*
X179000857Y-117995071D01*
X179072285Y-118030785D01*
X179215142Y-118030785D01*
X179286571Y-117995071D01*
X178608000Y-118030785D02*
X178608000Y-117280785D01*
X178536571Y-117745071D02*
X178322285Y-118030785D01*
X178322285Y-117530785D02*
X178608000Y-117816500D01*
X178000857Y-117959357D02*
X177965142Y-117995071D01*
X178000857Y-118030785D01*
X178036571Y-117995071D01*
X178000857Y-117959357D01*
X178000857Y-118030785D01*
X177643714Y-118030785D02*
X177643714Y-117530785D01*
X177643714Y-117673642D02*
X177608000Y-117602214D01*
X177572285Y-117566500D01*
X177500857Y-117530785D01*
X177429428Y-117530785D01*
X176858000Y-117530785D02*
X176858000Y-118030785D01*
X177179428Y-117530785D02*
X177179428Y-117923642D01*
X177143714Y-117995071D01*
X177072285Y-118030785D01*
X176965142Y-118030785D01*
X176893714Y-117995071D01*
X176858000Y-117959357D01*
X175965142Y-117245071D02*
X176608000Y-118209357D01*
X175822285Y-117530785D02*
X175536571Y-117530785D01*
X175715142Y-117280785D02*
X175715142Y-117923642D01*
X175679428Y-117995071D01*
X175608000Y-118030785D01*
X175536571Y-118030785D01*
X175286571Y-118030785D02*
X175286571Y-117280785D01*
X174965142Y-118030785D02*
X174965142Y-117637928D01*
X175000857Y-117566500D01*
X175072285Y-117530785D01*
X175179428Y-117530785D01*
X175250857Y-117566500D01*
X175286571Y-117602214D01*
X174608000Y-118030785D02*
X174608000Y-117530785D01*
X174608000Y-117673642D02*
X174572285Y-117602214D01*
X174536571Y-117566500D01*
X174465142Y-117530785D01*
X174393714Y-117530785D01*
X173858000Y-117995071D02*
X173929428Y-118030785D01*
X174072285Y-118030785D01*
X174143714Y-117995071D01*
X174179428Y-117923642D01*
X174179428Y-117637928D01*
X174143714Y-117566500D01*
X174072285Y-117530785D01*
X173929428Y-117530785D01*
X173858000Y-117566500D01*
X173822285Y-117637928D01*
X173822285Y-117709357D01*
X174179428Y-117780785D01*
X173179428Y-118030785D02*
X173179428Y-117637928D01*
X173215142Y-117566500D01*
X173286571Y-117530785D01*
X173429428Y-117530785D01*
X173500857Y-117566500D01*
X173179428Y-117995071D02*
X173250857Y-118030785D01*
X173429428Y-118030785D01*
X173500857Y-117995071D01*
X173536571Y-117923642D01*
X173536571Y-117852214D01*
X173500857Y-117780785D01*
X173429428Y-117745071D01*
X173250857Y-117745071D01*
X173179428Y-117709357D01*
X172500857Y-118030785D02*
X172500857Y-117280785D01*
X172500857Y-117995071D02*
X172572285Y-118030785D01*
X172715142Y-118030785D01*
X172786571Y-117995071D01*
X172822285Y-117959357D01*
X172858000Y-117887928D01*
X172858000Y-117673642D01*
X172822285Y-117602214D01*
X172786571Y-117566500D01*
X172715142Y-117530785D01*
X172572285Y-117530785D01*
X172500857Y-117566500D01*
X172179428Y-117995071D02*
X172108000Y-118030785D01*
X171965142Y-118030785D01*
X171893714Y-117995071D01*
X171858000Y-117923642D01*
X171858000Y-117887928D01*
X171893714Y-117816500D01*
X171965142Y-117780785D01*
X172072285Y-117780785D01*
X172143714Y-117745071D01*
X172179428Y-117673642D01*
X172179428Y-117637928D01*
X172143714Y-117566500D01*
X172072285Y-117530785D01*
X171965142Y-117530785D01*
X171893714Y-117566500D01*
X171000857Y-117245071D02*
X171643714Y-118209357D01*
X170643714Y-117602214D02*
X170715142Y-117566500D01*
X170750857Y-117530785D01*
X170786571Y-117459357D01*
X170786571Y-117423642D01*
X170750857Y-117352214D01*
X170715142Y-117316500D01*
X170643714Y-117280785D01*
X170500857Y-117280785D01*
X170429428Y-117316500D01*
X170393714Y-117352214D01*
X170358000Y-117423642D01*
X170358000Y-117459357D01*
X170393714Y-117530785D01*
X170429428Y-117566500D01*
X170500857Y-117602214D01*
X170643714Y-117602214D01*
X170715142Y-117637928D01*
X170750857Y-117673642D01*
X170786571Y-117745071D01*
X170786571Y-117887928D01*
X170750857Y-117959357D01*
X170715142Y-117995071D01*
X170643714Y-118030785D01*
X170500857Y-118030785D01*
X170429428Y-117995071D01*
X170393714Y-117959357D01*
X170358000Y-117887928D01*
X170358000Y-117745071D01*
X170393714Y-117673642D01*
X170429428Y-117637928D01*
X170500857Y-117602214D01*
X170108000Y-117280785D02*
X169608000Y-117280785D01*
X169929428Y-118030785D01*
X169393714Y-117280785D02*
X168929428Y-117280785D01*
X169179428Y-117566500D01*
X169072285Y-117566500D01*
X169000857Y-117602214D01*
X168965142Y-117637928D01*
X168929428Y-117709357D01*
X168929428Y-117887928D01*
X168965142Y-117959357D01*
X169000857Y-117995071D01*
X169072285Y-118030785D01*
X169286571Y-118030785D01*
X169358000Y-117995071D01*
X169393714Y-117959357D01*
X168572285Y-118030785D02*
X168429428Y-118030785D01*
X168358000Y-117995071D01*
X168322285Y-117959357D01*
X168250857Y-117852214D01*
X168215142Y-117709357D01*
X168215142Y-117423642D01*
X168250857Y-117352214D01*
X168286571Y-117316500D01*
X168358000Y-117280785D01*
X168500857Y-117280785D01*
X168572285Y-117316500D01*
X168608000Y-117352214D01*
X168643714Y-117423642D01*
X168643714Y-117602214D01*
X168608000Y-117673642D01*
X168572285Y-117709357D01*
X168500857Y-117745071D01*
X168358000Y-117745071D01*
X168286571Y-117709357D01*
X168250857Y-117673642D01*
X168215142Y-117602214D01*
X167893714Y-117745071D02*
X167322285Y-117745071D01*
X167036571Y-117530785D02*
X166858000Y-118030785D01*
X166679428Y-117530785D01*
X166108000Y-117995071D02*
X166179428Y-118030785D01*
X166322285Y-118030785D01*
X166393714Y-117995071D01*
X166429428Y-117923642D01*
X166429428Y-117637928D01*
X166393714Y-117566500D01*
X166322285Y-117530785D01*
X166179428Y-117530785D01*
X166108000Y-117566500D01*
X166072285Y-117637928D01*
X166072285Y-117709357D01*
X166429428Y-117780785D01*
X165750857Y-118030785D02*
X165750857Y-117280785D01*
X165679428Y-117745071D02*
X165465142Y-118030785D01*
X165465142Y-117530785D02*
X165750857Y-117816500D01*
X165250857Y-117530785D02*
X164965142Y-117530785D01*
X165143714Y-117280785D02*
X165143714Y-117923642D01*
X165108000Y-117995071D01*
X165036571Y-118030785D01*
X164965142Y-118030785D01*
X164608000Y-118030785D02*
X164679428Y-117995071D01*
X164715142Y-117959357D01*
X164750857Y-117887928D01*
X164750857Y-117673642D01*
X164715142Y-117602214D01*
X164679428Y-117566500D01*
X164608000Y-117530785D01*
X164500857Y-117530785D01*
X164429428Y-117566500D01*
X164393714Y-117602214D01*
X164358000Y-117673642D01*
X164358000Y-117887928D01*
X164393714Y-117959357D01*
X164429428Y-117995071D01*
X164500857Y-118030785D01*
X164608000Y-118030785D01*
X164036571Y-118030785D02*
X164036571Y-117530785D01*
X164036571Y-117673642D02*
X164000857Y-117602214D01*
X163965142Y-117566500D01*
X163893714Y-117530785D01*
X163822285Y-117530785D01*
X163572285Y-117745071D02*
X163000857Y-117745071D01*
X162500857Y-117280785D02*
X162429428Y-117280785D01*
X162358000Y-117316500D01*
X162322285Y-117352214D01*
X162286571Y-117423642D01*
X162250857Y-117566500D01*
X162250857Y-117745071D01*
X162286571Y-117887928D01*
X162322285Y-117959357D01*
X162358000Y-117995071D01*
X162429428Y-118030785D01*
X162500857Y-118030785D01*
X162572285Y-117995071D01*
X162608000Y-117959357D01*
X162643714Y-117887928D01*
X162679428Y-117745071D01*
X162679428Y-117566500D01*
X162643714Y-117423642D01*
X162608000Y-117352214D01*
X162572285Y-117316500D01*
X162500857Y-117280785D01*
X161608000Y-117280785D02*
X161750857Y-117280785D01*
X161822285Y-117316500D01*
X161858000Y-117352214D01*
X161929428Y-117459357D01*
X161965142Y-117602214D01*
X161965142Y-117887928D01*
X161929428Y-117959357D01*
X161893714Y-117995071D01*
X161822285Y-118030785D01*
X161679428Y-118030785D01*
X161608000Y-117995071D01*
X161572285Y-117959357D01*
X161536571Y-117887928D01*
X161536571Y-117709357D01*
X161572285Y-117637928D01*
X161608000Y-117602214D01*
X161679428Y-117566500D01*
X161822285Y-117566500D01*
X161893714Y-117602214D01*
X161929428Y-117637928D01*
X161965142Y-117709357D01*
X161322285Y-117530785D02*
X161036571Y-117530785D01*
X161215142Y-117280785D02*
X161215142Y-117923642D01*
X161179428Y-117995071D01*
X161108000Y-118030785D01*
X161036571Y-118030785D01*
X160822285Y-117995071D02*
X160750857Y-118030785D01*
X160608000Y-118030785D01*
X160536571Y-117995071D01*
X160500857Y-117923642D01*
X160500857Y-117887928D01*
X160536571Y-117816500D01*
X160608000Y-117780785D01*
X160715142Y-117780785D01*
X160786571Y-117745071D01*
X160822285Y-117673642D01*
X160822285Y-117637928D01*
X160786571Y-117566500D01*
X160715142Y-117530785D01*
X160608000Y-117530785D01*
X160536571Y-117566500D01*
X160179428Y-117745071D02*
X159608000Y-117745071D01*
X159322285Y-117530785D02*
X159143714Y-118030785D01*
X158965142Y-117530785D01*
X158679428Y-118030785D02*
X158679428Y-117530785D01*
X158679428Y-117280785D02*
X158715142Y-117316500D01*
X158679428Y-117352214D01*
X158643714Y-117316500D01*
X158679428Y-117280785D01*
X158679428Y-117352214D01*
X158000857Y-118030785D02*
X158000857Y-117280785D01*
X158000857Y-117995071D02*
X158072285Y-118030785D01*
X158215142Y-118030785D01*
X158286571Y-117995071D01*
X158322285Y-117959357D01*
X158358000Y-117887928D01*
X158358000Y-117673642D01*
X158322285Y-117602214D01*
X158286571Y-117566500D01*
X158215142Y-117530785D01*
X158072285Y-117530785D01*
X158000857Y-117566500D01*
X157358000Y-117995071D02*
X157429428Y-118030785D01*
X157572285Y-118030785D01*
X157643714Y-117995071D01*
X157679428Y-117923642D01*
X157679428Y-117637928D01*
X157643714Y-117566500D01*
X157572285Y-117530785D01*
X157429428Y-117530785D01*
X157358000Y-117566500D01*
X157322285Y-117637928D01*
X157322285Y-117709357D01*
X157679428Y-117780785D01*
X156893714Y-118030785D02*
X156965142Y-117995071D01*
X157000857Y-117959357D01*
X157036571Y-117887928D01*
X157036571Y-117673642D01*
X157000857Y-117602214D01*
X156965142Y-117566500D01*
X156893714Y-117530785D01*
X156786571Y-117530785D01*
X156715142Y-117566500D01*
X156679428Y-117602214D01*
X156643714Y-117673642D01*
X156643714Y-117887928D01*
X156679428Y-117959357D01*
X156715142Y-117995071D01*
X156786571Y-118030785D01*
X156893714Y-118030785D01*
X156393714Y-117530785D02*
X156215142Y-118030785D01*
X156036571Y-117530785D01*
X155822285Y-117530785D02*
X155643714Y-118030785D01*
X155465142Y-117530785D02*
X155643714Y-118030785D01*
X155715142Y-118209357D01*
X155750857Y-118245071D01*
X155822285Y-118280785D01*
X155179428Y-118030785D02*
X155179428Y-117280785D01*
X155108000Y-117745071D02*
X154893714Y-118030785D01*
X154893714Y-117530785D02*
X155179428Y-117816500D01*
X154572285Y-118030785D02*
X154572285Y-117280785D01*
X154250857Y-118030785D02*
X154250857Y-117637928D01*
X154286571Y-117566500D01*
X154358000Y-117530785D01*
X154465142Y-117530785D01*
X154536571Y-117566500D01*
X154572285Y-117602214D01*
X153786571Y-118030785D02*
X153858000Y-117995071D01*
X153893714Y-117959357D01*
X153929428Y-117887928D01*
X153929428Y-117673642D01*
X153893714Y-117602214D01*
X153858000Y-117566500D01*
X153786571Y-117530785D01*
X153679428Y-117530785D01*
X153608000Y-117566500D01*
X153572285Y-117602214D01*
X153536571Y-117673642D01*
X153536571Y-117887928D01*
X153572285Y-117959357D01*
X153608000Y-117995071D01*
X153679428Y-118030785D01*
X153786571Y-118030785D01*
X152893714Y-118030785D02*
X152893714Y-117280785D01*
X152893714Y-117995071D02*
X152965142Y-118030785D01*
X153108000Y-118030785D01*
X153179428Y-117995071D01*
X153215142Y-117959357D01*
X153250857Y-117887928D01*
X153250857Y-117673642D01*
X153215142Y-117602214D01*
X153179428Y-117566500D01*
X153108000Y-117530785D01*
X152965142Y-117530785D01*
X152893714Y-117566500D01*
X152536571Y-117745071D02*
X151965142Y-117745071D01*
X151608000Y-117530785D02*
X151608000Y-118280785D01*
X151608000Y-117566500D02*
X151536571Y-117530785D01*
X151393714Y-117530785D01*
X151322285Y-117566500D01*
X151286571Y-117602214D01*
X151250857Y-117673642D01*
X151250857Y-117887928D01*
X151286571Y-117959357D01*
X151322285Y-117995071D01*
X151393714Y-118030785D01*
X151536571Y-118030785D01*
X151608000Y-117995071D01*
X150822285Y-118030785D02*
X150893714Y-117995071D01*
X150929428Y-117959357D01*
X150965142Y-117887928D01*
X150965142Y-117673642D01*
X150929428Y-117602214D01*
X150893714Y-117566500D01*
X150822285Y-117530785D01*
X150715142Y-117530785D01*
X150643714Y-117566500D01*
X150608000Y-117602214D01*
X150572285Y-117673642D01*
X150572285Y-117887928D01*
X150608000Y-117959357D01*
X150643714Y-117995071D01*
X150715142Y-118030785D01*
X150822285Y-118030785D01*
X149929428Y-118030785D02*
X149929428Y-117280785D01*
X149929428Y-117995071D02*
X150000857Y-118030785D01*
X150143714Y-118030785D01*
X150215142Y-117995071D01*
X150250857Y-117959357D01*
X150286571Y-117887928D01*
X150286571Y-117673642D01*
X150250857Y-117602214D01*
X150215142Y-117566500D01*
X150143714Y-117530785D01*
X150000857Y-117530785D01*
X149929428Y-117566500D01*
X149572285Y-118030785D02*
X149572285Y-117280785D01*
X149500857Y-117745071D02*
X149286571Y-118030785D01*
X149286571Y-117530785D02*
X149572285Y-117816500D01*
X148858000Y-118030785D02*
X148929428Y-117995071D01*
X148965142Y-117923642D01*
X148965142Y-117280785D01*
X148643714Y-117530785D02*
X148465142Y-118030785D01*
X148286571Y-117530785D02*
X148465142Y-118030785D01*
X148536571Y-118209357D01*
X148572285Y-118245071D01*
X148643714Y-118280785D01*
X147679428Y-117530785D02*
X147679428Y-118030785D01*
X148000857Y-117530785D02*
X148000857Y-117923642D01*
X147965142Y-117995071D01*
X147893714Y-118030785D01*
X147786571Y-118030785D01*
X147715142Y-117995071D01*
X147679428Y-117959357D01*
X147000857Y-117995071D02*
X147072285Y-118030785D01*
X147215142Y-118030785D01*
X147286571Y-117995071D01*
X147322285Y-117959357D01*
X147358000Y-117887928D01*
X147358000Y-117673642D01*
X147322285Y-117602214D01*
X147286571Y-117566500D01*
X147215142Y-117530785D01*
X147072285Y-117530785D01*
X147000857Y-117566500D01*
X146679428Y-118030785D02*
X146679428Y-117280785D01*
X146358000Y-118030785D02*
X146358000Y-117637928D01*
X146393714Y-117566500D01*
X146465142Y-117530785D01*
X146572285Y-117530785D01*
X146643714Y-117566500D01*
X146679428Y-117602214D01*
X145715142Y-117995071D02*
X145786571Y-118030785D01*
X145929428Y-118030785D01*
X146000857Y-117995071D01*
X146036571Y-117923642D01*
X146036571Y-117637928D01*
X146000857Y-117566500D01*
X145929428Y-117530785D01*
X145786571Y-117530785D01*
X145715142Y-117566500D01*
X145679428Y-117637928D01*
X145679428Y-117709357D01*
X146036571Y-117780785D01*
X145358000Y-117530785D02*
X145358000Y-118030785D01*
X145358000Y-117602214D02*
X145322285Y-117566500D01*
X145250857Y-117530785D01*
X145143714Y-117530785D01*
X145072285Y-117566500D01*
X145036571Y-117637928D01*
X145036571Y-118030785D01*
X144679428Y-118030785D02*
X144679428Y-117530785D01*
X144679428Y-117280785D02*
X144715142Y-117316500D01*
X144679428Y-117352214D01*
X144643714Y-117316500D01*
X144679428Y-117280785D01*
X144679428Y-117352214D01*
X144036571Y-117995071D02*
X144108000Y-118030785D01*
X144250857Y-118030785D01*
X144322285Y-117995071D01*
X144358000Y-117923642D01*
X144358000Y-117637928D01*
X144322285Y-117566500D01*
X144250857Y-117530785D01*
X144108000Y-117530785D01*
X144036571Y-117566500D01*
X144000857Y-117637928D01*
X144000857Y-117709357D01*
X144358000Y-117780785D01*
X143679428Y-117745071D02*
X143108000Y-117745071D01*
X142750857Y-118030785D02*
X142750857Y-117280785D01*
X142679428Y-117745071D02*
X142465142Y-118030785D01*
X142465142Y-117530785D02*
X142750857Y-117816500D01*
X142143714Y-117745071D02*
X141572285Y-117745071D01*
X141322285Y-117530785D02*
X141036571Y-117530785D01*
X141215142Y-117280785D02*
X141215142Y-117923642D01*
X141179428Y-117995071D01*
X141108000Y-118030785D01*
X141036571Y-118030785D01*
X140858000Y-117530785D02*
X140679428Y-118030785D01*
X140500857Y-117530785D01*
X139679428Y-117245071D02*
X140322285Y-118209357D01*
M02*
