G04 #@! TF.GenerationSoftware,KiCad,Pcbnew,(5.1.2)-1*
G04 #@! TF.CreationDate,2020-06-12T06:51:12+03:00*
G04 #@! TF.ProjectId,vector06c-rgb2tv,76656374-6f72-4303-9663-2d7267623274,rev?*
G04 #@! TF.SameCoordinates,Original*
G04 #@! TF.FileFunction,Legend,Bot*
G04 #@! TF.FilePolarity,Positive*
%FSLAX46Y46*%
G04 Gerber Fmt 4.6, Leading zero omitted, Abs format (unit mm)*
G04 Created by KiCad (PCBNEW (5.1.2)-1) date 2020-06-12 06:51:12*
%MOMM*%
%LPD*%
G04 APERTURE LIST*
%ADD10C,0.120000*%
G04 APERTURE END LIST*
D10*
X186794571Y-110637285D02*
X186544571Y-111387285D01*
X186294571Y-110637285D01*
X185758857Y-111351571D02*
X185830285Y-111387285D01*
X185973142Y-111387285D01*
X186044571Y-111351571D01*
X186080285Y-111280142D01*
X186080285Y-110994428D01*
X186044571Y-110923000D01*
X185973142Y-110887285D01*
X185830285Y-110887285D01*
X185758857Y-110923000D01*
X185723142Y-110994428D01*
X185723142Y-111065857D01*
X186080285Y-111137285D01*
X185080285Y-111351571D02*
X185151714Y-111387285D01*
X185294571Y-111387285D01*
X185366000Y-111351571D01*
X185401714Y-111315857D01*
X185437428Y-111244428D01*
X185437428Y-111030142D01*
X185401714Y-110958714D01*
X185366000Y-110923000D01*
X185294571Y-110887285D01*
X185151714Y-110887285D01*
X185080285Y-110923000D01*
X184866000Y-110887285D02*
X184580285Y-110887285D01*
X184758857Y-110637285D02*
X184758857Y-111280142D01*
X184723142Y-111351571D01*
X184651714Y-111387285D01*
X184580285Y-111387285D01*
X184223142Y-111387285D02*
X184294571Y-111351571D01*
X184330285Y-111315857D01*
X184366000Y-111244428D01*
X184366000Y-111030142D01*
X184330285Y-110958714D01*
X184294571Y-110923000D01*
X184223142Y-110887285D01*
X184116000Y-110887285D01*
X184044571Y-110923000D01*
X184008857Y-110958714D01*
X183973142Y-111030142D01*
X183973142Y-111244428D01*
X184008857Y-111315857D01*
X184044571Y-111351571D01*
X184116000Y-111387285D01*
X184223142Y-111387285D01*
X183651714Y-111387285D02*
X183651714Y-110887285D01*
X183651714Y-111030142D02*
X183616000Y-110958714D01*
X183580285Y-110923000D01*
X183508857Y-110887285D01*
X183437428Y-110887285D01*
X183187428Y-111101571D02*
X182616000Y-111101571D01*
X182116000Y-110637285D02*
X182044571Y-110637285D01*
X181973142Y-110673000D01*
X181937428Y-110708714D01*
X181901714Y-110780142D01*
X181866000Y-110923000D01*
X181866000Y-111101571D01*
X181901714Y-111244428D01*
X181937428Y-111315857D01*
X181973142Y-111351571D01*
X182044571Y-111387285D01*
X182116000Y-111387285D01*
X182187428Y-111351571D01*
X182223142Y-111315857D01*
X182258857Y-111244428D01*
X182294571Y-111101571D01*
X182294571Y-110923000D01*
X182258857Y-110780142D01*
X182223142Y-110708714D01*
X182187428Y-110673000D01*
X182116000Y-110637285D01*
X181223142Y-110637285D02*
X181366000Y-110637285D01*
X181437428Y-110673000D01*
X181473142Y-110708714D01*
X181544571Y-110815857D01*
X181580285Y-110958714D01*
X181580285Y-111244428D01*
X181544571Y-111315857D01*
X181508857Y-111351571D01*
X181437428Y-111387285D01*
X181294571Y-111387285D01*
X181223142Y-111351571D01*
X181187428Y-111315857D01*
X181151714Y-111244428D01*
X181151714Y-111065857D01*
X181187428Y-110994428D01*
X181223142Y-110958714D01*
X181294571Y-110923000D01*
X181437428Y-110923000D01*
X181508857Y-110958714D01*
X181544571Y-110994428D01*
X181580285Y-111065857D01*
X180401714Y-111315857D02*
X180437428Y-111351571D01*
X180544571Y-111387285D01*
X180616000Y-111387285D01*
X180723142Y-111351571D01*
X180794571Y-111280142D01*
X180830285Y-111208714D01*
X180866000Y-111065857D01*
X180866000Y-110958714D01*
X180830285Y-110815857D01*
X180794571Y-110744428D01*
X180723142Y-110673000D01*
X180616000Y-110637285D01*
X180544571Y-110637285D01*
X180437428Y-110673000D01*
X180401714Y-110708714D01*
X179080285Y-111387285D02*
X179330285Y-111030142D01*
X179508857Y-111387285D02*
X179508857Y-110637285D01*
X179223142Y-110637285D01*
X179151714Y-110673000D01*
X179116000Y-110708714D01*
X179080285Y-110780142D01*
X179080285Y-110887285D01*
X179116000Y-110958714D01*
X179151714Y-110994428D01*
X179223142Y-111030142D01*
X179508857Y-111030142D01*
X178366000Y-110673000D02*
X178437428Y-110637285D01*
X178544571Y-110637285D01*
X178651714Y-110673000D01*
X178723142Y-110744428D01*
X178758857Y-110815857D01*
X178794571Y-110958714D01*
X178794571Y-111065857D01*
X178758857Y-111208714D01*
X178723142Y-111280142D01*
X178651714Y-111351571D01*
X178544571Y-111387285D01*
X178473142Y-111387285D01*
X178366000Y-111351571D01*
X178330285Y-111315857D01*
X178330285Y-111065857D01*
X178473142Y-111065857D01*
X177758857Y-110994428D02*
X177651714Y-111030142D01*
X177616000Y-111065857D01*
X177580285Y-111137285D01*
X177580285Y-111244428D01*
X177616000Y-111315857D01*
X177651714Y-111351571D01*
X177723142Y-111387285D01*
X178008857Y-111387285D01*
X178008857Y-110637285D01*
X177758857Y-110637285D01*
X177687428Y-110673000D01*
X177651714Y-110708714D01*
X177616000Y-110780142D01*
X177616000Y-110851571D01*
X177651714Y-110923000D01*
X177687428Y-110958714D01*
X177758857Y-110994428D01*
X178008857Y-110994428D01*
X177294571Y-110708714D02*
X177258857Y-110673000D01*
X177187428Y-110637285D01*
X177008857Y-110637285D01*
X176937428Y-110673000D01*
X176901714Y-110708714D01*
X176866000Y-110780142D01*
X176866000Y-110851571D01*
X176901714Y-110958714D01*
X177330285Y-111387285D01*
X176866000Y-111387285D01*
X176651714Y-110637285D02*
X176223142Y-110637285D01*
X176437428Y-111387285D02*
X176437428Y-110637285D01*
X176080285Y-110637285D02*
X175830285Y-111387285D01*
X175580285Y-110637285D01*
X186687428Y-112632285D02*
X186687428Y-111882285D01*
X186508857Y-111882285D01*
X186401714Y-111918000D01*
X186330285Y-111989428D01*
X186294571Y-112060857D01*
X186258857Y-112203714D01*
X186258857Y-112310857D01*
X186294571Y-112453714D01*
X186330285Y-112525142D01*
X186401714Y-112596571D01*
X186508857Y-112632285D01*
X186687428Y-112632285D01*
X185651714Y-112596571D02*
X185723142Y-112632285D01*
X185866000Y-112632285D01*
X185937428Y-112596571D01*
X185973142Y-112525142D01*
X185973142Y-112239428D01*
X185937428Y-112168000D01*
X185866000Y-112132285D01*
X185723142Y-112132285D01*
X185651714Y-112168000D01*
X185616000Y-112239428D01*
X185616000Y-112310857D01*
X185973142Y-112382285D01*
X185330285Y-112596571D02*
X185258857Y-112632285D01*
X185116000Y-112632285D01*
X185044571Y-112596571D01*
X185008857Y-112525142D01*
X185008857Y-112489428D01*
X185044571Y-112418000D01*
X185116000Y-112382285D01*
X185223142Y-112382285D01*
X185294571Y-112346571D01*
X185330285Y-112275142D01*
X185330285Y-112239428D01*
X185294571Y-112168000D01*
X185223142Y-112132285D01*
X185116000Y-112132285D01*
X185044571Y-112168000D01*
X184687428Y-112632285D02*
X184687428Y-112132285D01*
X184687428Y-111882285D02*
X184723142Y-111918000D01*
X184687428Y-111953714D01*
X184651714Y-111918000D01*
X184687428Y-111882285D01*
X184687428Y-111953714D01*
X184008857Y-112132285D02*
X184008857Y-112739428D01*
X184044571Y-112810857D01*
X184080285Y-112846571D01*
X184151714Y-112882285D01*
X184258857Y-112882285D01*
X184330285Y-112846571D01*
X184008857Y-112596571D02*
X184080285Y-112632285D01*
X184223142Y-112632285D01*
X184294571Y-112596571D01*
X184330285Y-112560857D01*
X184366000Y-112489428D01*
X184366000Y-112275142D01*
X184330285Y-112203714D01*
X184294571Y-112168000D01*
X184223142Y-112132285D01*
X184080285Y-112132285D01*
X184008857Y-112168000D01*
X183651714Y-112132285D02*
X183651714Y-112632285D01*
X183651714Y-112203714D02*
X183616000Y-112168000D01*
X183544571Y-112132285D01*
X183437428Y-112132285D01*
X183366000Y-112168000D01*
X183330285Y-112239428D01*
X183330285Y-112632285D01*
X182401714Y-112632285D02*
X182401714Y-111882285D01*
X182401714Y-112168000D02*
X182330285Y-112132285D01*
X182187428Y-112132285D01*
X182116000Y-112168000D01*
X182080285Y-112203714D01*
X182044571Y-112275142D01*
X182044571Y-112489428D01*
X182080285Y-112560857D01*
X182116000Y-112596571D01*
X182187428Y-112632285D01*
X182330285Y-112632285D01*
X182401714Y-112596571D01*
X181794571Y-112132285D02*
X181616000Y-112632285D01*
X181437428Y-112132285D02*
X181616000Y-112632285D01*
X181687428Y-112810857D01*
X181723142Y-112846571D01*
X181794571Y-112882285D01*
X180580285Y-112632285D02*
X180580285Y-111882285D01*
X180223142Y-112632285D02*
X180223142Y-112132285D01*
X180223142Y-112203714D02*
X180187428Y-112168000D01*
X180116000Y-112132285D01*
X180008857Y-112132285D01*
X179937428Y-112168000D01*
X179901714Y-112239428D01*
X179901714Y-112632285D01*
X179901714Y-112239428D02*
X179866000Y-112168000D01*
X179794571Y-112132285D01*
X179687428Y-112132285D01*
X179616000Y-112168000D01*
X179580285Y-112239428D01*
X179580285Y-112632285D01*
X179223142Y-112132285D02*
X179223142Y-112882285D01*
X179223142Y-112168000D02*
X179151714Y-112132285D01*
X179008857Y-112132285D01*
X178937428Y-112168000D01*
X178901714Y-112203714D01*
X178866000Y-112275142D01*
X178866000Y-112489428D01*
X178901714Y-112560857D01*
X178937428Y-112596571D01*
X179008857Y-112632285D01*
X179151714Y-112632285D01*
X179223142Y-112596571D01*
X178544571Y-112632285D02*
X178544571Y-112132285D01*
X178544571Y-112275142D02*
X178508857Y-112203714D01*
X178473142Y-112168000D01*
X178401714Y-112132285D01*
X178330285Y-112132285D01*
X177973142Y-112632285D02*
X178044571Y-112596571D01*
X178080285Y-112560857D01*
X178116000Y-112489428D01*
X178116000Y-112275142D01*
X178080285Y-112203714D01*
X178044571Y-112168000D01*
X177973142Y-112132285D01*
X177866000Y-112132285D01*
X177794571Y-112168000D01*
X177758857Y-112203714D01*
X177723142Y-112275142D01*
X177723142Y-112489428D01*
X177758857Y-112560857D01*
X177794571Y-112596571D01*
X177866000Y-112632285D01*
X177973142Y-112632285D01*
X177473142Y-112132285D02*
X177294571Y-112632285D01*
X177116000Y-112132285D01*
X176544571Y-112596571D02*
X176616000Y-112632285D01*
X176758857Y-112632285D01*
X176830285Y-112596571D01*
X176866000Y-112525142D01*
X176866000Y-112239428D01*
X176830285Y-112168000D01*
X176758857Y-112132285D01*
X176616000Y-112132285D01*
X176544571Y-112168000D01*
X176508857Y-112239428D01*
X176508857Y-112310857D01*
X176866000Y-112382285D01*
X176187428Y-112632285D02*
X176187428Y-112132285D01*
X176187428Y-112275142D02*
X176151714Y-112203714D01*
X176116000Y-112168000D01*
X176044571Y-112132285D01*
X175973142Y-112132285D01*
X186687428Y-113877285D02*
X186687428Y-113127285D01*
X186366000Y-113877285D02*
X186366000Y-113484428D01*
X186401714Y-113413000D01*
X186473142Y-113377285D01*
X186580285Y-113377285D01*
X186651714Y-113413000D01*
X186687428Y-113448714D01*
X186116000Y-113377285D02*
X185830285Y-113377285D01*
X186008857Y-113127285D02*
X186008857Y-113770142D01*
X185973142Y-113841571D01*
X185901714Y-113877285D01*
X185830285Y-113877285D01*
X185687428Y-113377285D02*
X185401714Y-113377285D01*
X185580285Y-113127285D02*
X185580285Y-113770142D01*
X185544571Y-113841571D01*
X185473142Y-113877285D01*
X185401714Y-113877285D01*
X185151714Y-113377285D02*
X185151714Y-114127285D01*
X185151714Y-113413000D02*
X185080285Y-113377285D01*
X184937428Y-113377285D01*
X184866000Y-113413000D01*
X184830285Y-113448714D01*
X184794571Y-113520142D01*
X184794571Y-113734428D01*
X184830285Y-113805857D01*
X184866000Y-113841571D01*
X184937428Y-113877285D01*
X185080285Y-113877285D01*
X185151714Y-113841571D01*
X184508857Y-113841571D02*
X184437428Y-113877285D01*
X184294571Y-113877285D01*
X184223142Y-113841571D01*
X184187428Y-113770142D01*
X184187428Y-113734428D01*
X184223142Y-113663000D01*
X184294571Y-113627285D01*
X184401714Y-113627285D01*
X184473142Y-113591571D01*
X184508857Y-113520142D01*
X184508857Y-113484428D01*
X184473142Y-113413000D01*
X184401714Y-113377285D01*
X184294571Y-113377285D01*
X184223142Y-113413000D01*
X183866000Y-113805857D02*
X183830285Y-113841571D01*
X183866000Y-113877285D01*
X183901714Y-113841571D01*
X183866000Y-113805857D01*
X183866000Y-113877285D01*
X183866000Y-113413000D02*
X183830285Y-113448714D01*
X183866000Y-113484428D01*
X183901714Y-113448714D01*
X183866000Y-113413000D01*
X183866000Y-113484428D01*
X182973142Y-113091571D02*
X183616000Y-114055857D01*
X182187428Y-113091571D02*
X182830285Y-114055857D01*
X182008857Y-113377285D02*
X181616000Y-113377285D01*
X182008857Y-113877285D01*
X181616000Y-113877285D01*
X181401714Y-113877285D02*
X181008857Y-113377285D01*
X181401714Y-113377285D02*
X181008857Y-113877285D01*
X180723142Y-113591571D02*
X180151714Y-113591571D01*
X179794571Y-113377285D02*
X179794571Y-114127285D01*
X179794571Y-113413000D02*
X179723142Y-113377285D01*
X179580285Y-113377285D01*
X179508857Y-113413000D01*
X179473142Y-113448714D01*
X179437428Y-113520142D01*
X179437428Y-113734428D01*
X179473142Y-113805857D01*
X179508857Y-113841571D01*
X179580285Y-113877285D01*
X179723142Y-113877285D01*
X179794571Y-113841571D01*
X179116000Y-113877285D02*
X179116000Y-113127285D01*
X179044571Y-113591571D02*
X178830285Y-113877285D01*
X178830285Y-113377285D02*
X179116000Y-113663000D01*
X178508857Y-113805857D02*
X178473142Y-113841571D01*
X178508857Y-113877285D01*
X178544571Y-113841571D01*
X178508857Y-113805857D01*
X178508857Y-113877285D01*
X178151714Y-113877285D02*
X178151714Y-113377285D01*
X178151714Y-113520142D02*
X178116000Y-113448714D01*
X178080285Y-113413000D01*
X178008857Y-113377285D01*
X177937428Y-113377285D01*
X177366000Y-113377285D02*
X177366000Y-113877285D01*
X177687428Y-113377285D02*
X177687428Y-113770142D01*
X177651714Y-113841571D01*
X177580285Y-113877285D01*
X177473142Y-113877285D01*
X177401714Y-113841571D01*
X177366000Y-113805857D01*
X176473142Y-113091571D02*
X177116000Y-114055857D01*
X176330285Y-113377285D02*
X176044571Y-113377285D01*
X176223142Y-113127285D02*
X176223142Y-113770142D01*
X176187428Y-113841571D01*
X176116000Y-113877285D01*
X176044571Y-113877285D01*
X175794571Y-113877285D02*
X175794571Y-113127285D01*
X175473142Y-113877285D02*
X175473142Y-113484428D01*
X175508857Y-113413000D01*
X175580285Y-113377285D01*
X175687428Y-113377285D01*
X175758857Y-113413000D01*
X175794571Y-113448714D01*
X175116000Y-113877285D02*
X175116000Y-113377285D01*
X175116000Y-113520142D02*
X175080285Y-113448714D01*
X175044571Y-113413000D01*
X174973142Y-113377285D01*
X174901714Y-113377285D01*
X174366000Y-113841571D02*
X174437428Y-113877285D01*
X174580285Y-113877285D01*
X174651714Y-113841571D01*
X174687428Y-113770142D01*
X174687428Y-113484428D01*
X174651714Y-113413000D01*
X174580285Y-113377285D01*
X174437428Y-113377285D01*
X174366000Y-113413000D01*
X174330285Y-113484428D01*
X174330285Y-113555857D01*
X174687428Y-113627285D01*
X173687428Y-113877285D02*
X173687428Y-113484428D01*
X173723142Y-113413000D01*
X173794571Y-113377285D01*
X173937428Y-113377285D01*
X174008857Y-113413000D01*
X173687428Y-113841571D02*
X173758857Y-113877285D01*
X173937428Y-113877285D01*
X174008857Y-113841571D01*
X174044571Y-113770142D01*
X174044571Y-113698714D01*
X174008857Y-113627285D01*
X173937428Y-113591571D01*
X173758857Y-113591571D01*
X173687428Y-113555857D01*
X173008857Y-113877285D02*
X173008857Y-113127285D01*
X173008857Y-113841571D02*
X173080285Y-113877285D01*
X173223142Y-113877285D01*
X173294571Y-113841571D01*
X173330285Y-113805857D01*
X173366000Y-113734428D01*
X173366000Y-113520142D01*
X173330285Y-113448714D01*
X173294571Y-113413000D01*
X173223142Y-113377285D01*
X173080285Y-113377285D01*
X173008857Y-113413000D01*
X172687428Y-113841571D02*
X172616000Y-113877285D01*
X172473142Y-113877285D01*
X172401714Y-113841571D01*
X172366000Y-113770142D01*
X172366000Y-113734428D01*
X172401714Y-113663000D01*
X172473142Y-113627285D01*
X172580285Y-113627285D01*
X172651714Y-113591571D01*
X172687428Y-113520142D01*
X172687428Y-113484428D01*
X172651714Y-113413000D01*
X172580285Y-113377285D01*
X172473142Y-113377285D01*
X172401714Y-113413000D01*
X171508857Y-113091571D02*
X172151714Y-114055857D01*
X171151714Y-113448714D02*
X171223142Y-113413000D01*
X171258857Y-113377285D01*
X171294571Y-113305857D01*
X171294571Y-113270142D01*
X171258857Y-113198714D01*
X171223142Y-113163000D01*
X171151714Y-113127285D01*
X171008857Y-113127285D01*
X170937428Y-113163000D01*
X170901714Y-113198714D01*
X170866000Y-113270142D01*
X170866000Y-113305857D01*
X170901714Y-113377285D01*
X170937428Y-113413000D01*
X171008857Y-113448714D01*
X171151714Y-113448714D01*
X171223142Y-113484428D01*
X171258857Y-113520142D01*
X171294571Y-113591571D01*
X171294571Y-113734428D01*
X171258857Y-113805857D01*
X171223142Y-113841571D01*
X171151714Y-113877285D01*
X171008857Y-113877285D01*
X170937428Y-113841571D01*
X170901714Y-113805857D01*
X170866000Y-113734428D01*
X170866000Y-113591571D01*
X170901714Y-113520142D01*
X170937428Y-113484428D01*
X171008857Y-113448714D01*
X170616000Y-113127285D02*
X170116000Y-113127285D01*
X170437428Y-113877285D01*
X169901714Y-113127285D02*
X169437428Y-113127285D01*
X169687428Y-113413000D01*
X169580285Y-113413000D01*
X169508857Y-113448714D01*
X169473142Y-113484428D01*
X169437428Y-113555857D01*
X169437428Y-113734428D01*
X169473142Y-113805857D01*
X169508857Y-113841571D01*
X169580285Y-113877285D01*
X169794571Y-113877285D01*
X169866000Y-113841571D01*
X169901714Y-113805857D01*
X169080285Y-113877285D02*
X168937428Y-113877285D01*
X168866000Y-113841571D01*
X168830285Y-113805857D01*
X168758857Y-113698714D01*
X168723142Y-113555857D01*
X168723142Y-113270142D01*
X168758857Y-113198714D01*
X168794571Y-113163000D01*
X168866000Y-113127285D01*
X169008857Y-113127285D01*
X169080285Y-113163000D01*
X169116000Y-113198714D01*
X169151714Y-113270142D01*
X169151714Y-113448714D01*
X169116000Y-113520142D01*
X169080285Y-113555857D01*
X169008857Y-113591571D01*
X168866000Y-113591571D01*
X168794571Y-113555857D01*
X168758857Y-113520142D01*
X168723142Y-113448714D01*
X168401714Y-113591571D02*
X167830285Y-113591571D01*
X167544571Y-113377285D02*
X167366000Y-113877285D01*
X167187428Y-113377285D01*
X166616000Y-113841571D02*
X166687428Y-113877285D01*
X166830285Y-113877285D01*
X166901714Y-113841571D01*
X166937428Y-113770142D01*
X166937428Y-113484428D01*
X166901714Y-113413000D01*
X166830285Y-113377285D01*
X166687428Y-113377285D01*
X166616000Y-113413000D01*
X166580285Y-113484428D01*
X166580285Y-113555857D01*
X166937428Y-113627285D01*
X166258857Y-113877285D02*
X166258857Y-113127285D01*
X166187428Y-113591571D02*
X165973142Y-113877285D01*
X165973142Y-113377285D02*
X166258857Y-113663000D01*
X165758857Y-113377285D02*
X165473142Y-113377285D01*
X165651714Y-113127285D02*
X165651714Y-113770142D01*
X165616000Y-113841571D01*
X165544571Y-113877285D01*
X165473142Y-113877285D01*
X165116000Y-113877285D02*
X165187428Y-113841571D01*
X165223142Y-113805857D01*
X165258857Y-113734428D01*
X165258857Y-113520142D01*
X165223142Y-113448714D01*
X165187428Y-113413000D01*
X165116000Y-113377285D01*
X165008857Y-113377285D01*
X164937428Y-113413000D01*
X164901714Y-113448714D01*
X164866000Y-113520142D01*
X164866000Y-113734428D01*
X164901714Y-113805857D01*
X164937428Y-113841571D01*
X165008857Y-113877285D01*
X165116000Y-113877285D01*
X164544571Y-113877285D02*
X164544571Y-113377285D01*
X164544571Y-113520142D02*
X164508857Y-113448714D01*
X164473142Y-113413000D01*
X164401714Y-113377285D01*
X164330285Y-113377285D01*
X164080285Y-113591571D02*
X163508857Y-113591571D01*
X163008857Y-113127285D02*
X162937428Y-113127285D01*
X162866000Y-113163000D01*
X162830285Y-113198714D01*
X162794571Y-113270142D01*
X162758857Y-113413000D01*
X162758857Y-113591571D01*
X162794571Y-113734428D01*
X162830285Y-113805857D01*
X162866000Y-113841571D01*
X162937428Y-113877285D01*
X163008857Y-113877285D01*
X163080285Y-113841571D01*
X163116000Y-113805857D01*
X163151714Y-113734428D01*
X163187428Y-113591571D01*
X163187428Y-113413000D01*
X163151714Y-113270142D01*
X163116000Y-113198714D01*
X163080285Y-113163000D01*
X163008857Y-113127285D01*
X162116000Y-113127285D02*
X162258857Y-113127285D01*
X162330285Y-113163000D01*
X162366000Y-113198714D01*
X162437428Y-113305857D01*
X162473142Y-113448714D01*
X162473142Y-113734428D01*
X162437428Y-113805857D01*
X162401714Y-113841571D01*
X162330285Y-113877285D01*
X162187428Y-113877285D01*
X162116000Y-113841571D01*
X162080285Y-113805857D01*
X162044571Y-113734428D01*
X162044571Y-113555857D01*
X162080285Y-113484428D01*
X162116000Y-113448714D01*
X162187428Y-113413000D01*
X162330285Y-113413000D01*
X162401714Y-113448714D01*
X162437428Y-113484428D01*
X162473142Y-113555857D01*
X161830285Y-113377285D02*
X161544571Y-113377285D01*
X161723142Y-113127285D02*
X161723142Y-113770142D01*
X161687428Y-113841571D01*
X161616000Y-113877285D01*
X161544571Y-113877285D01*
X161330285Y-113841571D02*
X161258857Y-113877285D01*
X161116000Y-113877285D01*
X161044571Y-113841571D01*
X161008857Y-113770142D01*
X161008857Y-113734428D01*
X161044571Y-113663000D01*
X161116000Y-113627285D01*
X161223142Y-113627285D01*
X161294571Y-113591571D01*
X161330285Y-113520142D01*
X161330285Y-113484428D01*
X161294571Y-113413000D01*
X161223142Y-113377285D01*
X161116000Y-113377285D01*
X161044571Y-113413000D01*
X160687428Y-113591571D02*
X160116000Y-113591571D01*
X159830285Y-113377285D02*
X159651714Y-113877285D01*
X159473142Y-113377285D01*
X159187428Y-113877285D02*
X159187428Y-113377285D01*
X159187428Y-113127285D02*
X159223142Y-113163000D01*
X159187428Y-113198714D01*
X159151714Y-113163000D01*
X159187428Y-113127285D01*
X159187428Y-113198714D01*
X158508857Y-113877285D02*
X158508857Y-113127285D01*
X158508857Y-113841571D02*
X158580285Y-113877285D01*
X158723142Y-113877285D01*
X158794571Y-113841571D01*
X158830285Y-113805857D01*
X158866000Y-113734428D01*
X158866000Y-113520142D01*
X158830285Y-113448714D01*
X158794571Y-113413000D01*
X158723142Y-113377285D01*
X158580285Y-113377285D01*
X158508857Y-113413000D01*
X157866000Y-113841571D02*
X157937428Y-113877285D01*
X158080285Y-113877285D01*
X158151714Y-113841571D01*
X158187428Y-113770142D01*
X158187428Y-113484428D01*
X158151714Y-113413000D01*
X158080285Y-113377285D01*
X157937428Y-113377285D01*
X157866000Y-113413000D01*
X157830285Y-113484428D01*
X157830285Y-113555857D01*
X158187428Y-113627285D01*
X157401714Y-113877285D02*
X157473142Y-113841571D01*
X157508857Y-113805857D01*
X157544571Y-113734428D01*
X157544571Y-113520142D01*
X157508857Y-113448714D01*
X157473142Y-113413000D01*
X157401714Y-113377285D01*
X157294571Y-113377285D01*
X157223142Y-113413000D01*
X157187428Y-113448714D01*
X157151714Y-113520142D01*
X157151714Y-113734428D01*
X157187428Y-113805857D01*
X157223142Y-113841571D01*
X157294571Y-113877285D01*
X157401714Y-113877285D01*
X156901714Y-113377285D02*
X156723142Y-113877285D01*
X156544571Y-113377285D01*
X156330285Y-113377285D02*
X156151714Y-113877285D01*
X155973142Y-113377285D02*
X156151714Y-113877285D01*
X156223142Y-114055857D01*
X156258857Y-114091571D01*
X156330285Y-114127285D01*
X155687428Y-113877285D02*
X155687428Y-113127285D01*
X155616000Y-113591571D02*
X155401714Y-113877285D01*
X155401714Y-113377285D02*
X155687428Y-113663000D01*
X155080285Y-113877285D02*
X155080285Y-113127285D01*
X154758857Y-113877285D02*
X154758857Y-113484428D01*
X154794571Y-113413000D01*
X154866000Y-113377285D01*
X154973142Y-113377285D01*
X155044571Y-113413000D01*
X155080285Y-113448714D01*
X154294571Y-113877285D02*
X154366000Y-113841571D01*
X154401714Y-113805857D01*
X154437428Y-113734428D01*
X154437428Y-113520142D01*
X154401714Y-113448714D01*
X154366000Y-113413000D01*
X154294571Y-113377285D01*
X154187428Y-113377285D01*
X154116000Y-113413000D01*
X154080285Y-113448714D01*
X154044571Y-113520142D01*
X154044571Y-113734428D01*
X154080285Y-113805857D01*
X154116000Y-113841571D01*
X154187428Y-113877285D01*
X154294571Y-113877285D01*
X153401714Y-113877285D02*
X153401714Y-113127285D01*
X153401714Y-113841571D02*
X153473142Y-113877285D01*
X153616000Y-113877285D01*
X153687428Y-113841571D01*
X153723142Y-113805857D01*
X153758857Y-113734428D01*
X153758857Y-113520142D01*
X153723142Y-113448714D01*
X153687428Y-113413000D01*
X153616000Y-113377285D01*
X153473142Y-113377285D01*
X153401714Y-113413000D01*
X153044571Y-113591571D02*
X152473142Y-113591571D01*
X152116000Y-113377285D02*
X152116000Y-114127285D01*
X152116000Y-113413000D02*
X152044571Y-113377285D01*
X151901714Y-113377285D01*
X151830285Y-113413000D01*
X151794571Y-113448714D01*
X151758857Y-113520142D01*
X151758857Y-113734428D01*
X151794571Y-113805857D01*
X151830285Y-113841571D01*
X151901714Y-113877285D01*
X152044571Y-113877285D01*
X152116000Y-113841571D01*
X151330285Y-113877285D02*
X151401714Y-113841571D01*
X151437428Y-113805857D01*
X151473142Y-113734428D01*
X151473142Y-113520142D01*
X151437428Y-113448714D01*
X151401714Y-113413000D01*
X151330285Y-113377285D01*
X151223142Y-113377285D01*
X151151714Y-113413000D01*
X151116000Y-113448714D01*
X151080285Y-113520142D01*
X151080285Y-113734428D01*
X151116000Y-113805857D01*
X151151714Y-113841571D01*
X151223142Y-113877285D01*
X151330285Y-113877285D01*
X150437428Y-113877285D02*
X150437428Y-113127285D01*
X150437428Y-113841571D02*
X150508857Y-113877285D01*
X150651714Y-113877285D01*
X150723142Y-113841571D01*
X150758857Y-113805857D01*
X150794571Y-113734428D01*
X150794571Y-113520142D01*
X150758857Y-113448714D01*
X150723142Y-113413000D01*
X150651714Y-113377285D01*
X150508857Y-113377285D01*
X150437428Y-113413000D01*
X150080285Y-113877285D02*
X150080285Y-113127285D01*
X150008857Y-113591571D02*
X149794571Y-113877285D01*
X149794571Y-113377285D02*
X150080285Y-113663000D01*
X149366000Y-113877285D02*
X149437428Y-113841571D01*
X149473142Y-113770142D01*
X149473142Y-113127285D01*
X149151714Y-113377285D02*
X148973142Y-113877285D01*
X148794571Y-113377285D02*
X148973142Y-113877285D01*
X149044571Y-114055857D01*
X149080285Y-114091571D01*
X149151714Y-114127285D01*
X148187428Y-113377285D02*
X148187428Y-113877285D01*
X148508857Y-113377285D02*
X148508857Y-113770142D01*
X148473142Y-113841571D01*
X148401714Y-113877285D01*
X148294571Y-113877285D01*
X148223142Y-113841571D01*
X148187428Y-113805857D01*
X147508857Y-113841571D02*
X147580285Y-113877285D01*
X147723142Y-113877285D01*
X147794571Y-113841571D01*
X147830285Y-113805857D01*
X147866000Y-113734428D01*
X147866000Y-113520142D01*
X147830285Y-113448714D01*
X147794571Y-113413000D01*
X147723142Y-113377285D01*
X147580285Y-113377285D01*
X147508857Y-113413000D01*
X147187428Y-113877285D02*
X147187428Y-113127285D01*
X146866000Y-113877285D02*
X146866000Y-113484428D01*
X146901714Y-113413000D01*
X146973142Y-113377285D01*
X147080285Y-113377285D01*
X147151714Y-113413000D01*
X147187428Y-113448714D01*
X146223142Y-113841571D02*
X146294571Y-113877285D01*
X146437428Y-113877285D01*
X146508857Y-113841571D01*
X146544571Y-113770142D01*
X146544571Y-113484428D01*
X146508857Y-113413000D01*
X146437428Y-113377285D01*
X146294571Y-113377285D01*
X146223142Y-113413000D01*
X146187428Y-113484428D01*
X146187428Y-113555857D01*
X146544571Y-113627285D01*
X145866000Y-113377285D02*
X145866000Y-113877285D01*
X145866000Y-113448714D02*
X145830285Y-113413000D01*
X145758857Y-113377285D01*
X145651714Y-113377285D01*
X145580285Y-113413000D01*
X145544571Y-113484428D01*
X145544571Y-113877285D01*
X145187428Y-113877285D02*
X145187428Y-113377285D01*
X145187428Y-113127285D02*
X145223142Y-113163000D01*
X145187428Y-113198714D01*
X145151714Y-113163000D01*
X145187428Y-113127285D01*
X145187428Y-113198714D01*
X144544571Y-113841571D02*
X144616000Y-113877285D01*
X144758857Y-113877285D01*
X144830285Y-113841571D01*
X144866000Y-113770142D01*
X144866000Y-113484428D01*
X144830285Y-113413000D01*
X144758857Y-113377285D01*
X144616000Y-113377285D01*
X144544571Y-113413000D01*
X144508857Y-113484428D01*
X144508857Y-113555857D01*
X144866000Y-113627285D01*
X144187428Y-113591571D02*
X143616000Y-113591571D01*
X143258857Y-113877285D02*
X143258857Y-113127285D01*
X143187428Y-113591571D02*
X142973142Y-113877285D01*
X142973142Y-113377285D02*
X143258857Y-113663000D01*
X142651714Y-113591571D02*
X142080285Y-113591571D01*
X141830285Y-113377285D02*
X141544571Y-113377285D01*
X141723142Y-113127285D02*
X141723142Y-113770142D01*
X141687428Y-113841571D01*
X141616000Y-113877285D01*
X141544571Y-113877285D01*
X141366000Y-113377285D02*
X141187428Y-113877285D01*
X141008857Y-113377285D01*
X140187428Y-113091571D02*
X140830285Y-114055857D01*
X186794571Y-114372285D02*
X186366000Y-114372285D01*
X186580285Y-115122285D02*
X186580285Y-114372285D01*
X186116000Y-115122285D02*
X186116000Y-114372285D01*
X185794571Y-115122285D02*
X185794571Y-114729428D01*
X185830285Y-114658000D01*
X185901714Y-114622285D01*
X186008857Y-114622285D01*
X186080285Y-114658000D01*
X186116000Y-114693714D01*
X185437428Y-115122285D02*
X185437428Y-114622285D01*
X185437428Y-114372285D02*
X185473142Y-114408000D01*
X185437428Y-114443714D01*
X185401714Y-114408000D01*
X185437428Y-114372285D01*
X185437428Y-114443714D01*
X185116000Y-115086571D02*
X185044571Y-115122285D01*
X184901714Y-115122285D01*
X184830285Y-115086571D01*
X184794571Y-115015142D01*
X184794571Y-114979428D01*
X184830285Y-114908000D01*
X184901714Y-114872285D01*
X185008857Y-114872285D01*
X185080285Y-114836571D01*
X185116000Y-114765142D01*
X185116000Y-114729428D01*
X185080285Y-114658000D01*
X185008857Y-114622285D01*
X184901714Y-114622285D01*
X184830285Y-114658000D01*
X183580285Y-115086571D02*
X183651714Y-115122285D01*
X183794571Y-115122285D01*
X183866000Y-115086571D01*
X183901714Y-115050857D01*
X183937428Y-114979428D01*
X183937428Y-114765142D01*
X183901714Y-114693714D01*
X183866000Y-114658000D01*
X183794571Y-114622285D01*
X183651714Y-114622285D01*
X183580285Y-114658000D01*
X182937428Y-114622285D02*
X182937428Y-115122285D01*
X183258857Y-114622285D02*
X183258857Y-115015142D01*
X183223142Y-115086571D01*
X183151714Y-115122285D01*
X183044571Y-115122285D01*
X182973142Y-115086571D01*
X182937428Y-115050857D01*
X182616000Y-115086571D02*
X182544571Y-115122285D01*
X182401714Y-115122285D01*
X182330285Y-115086571D01*
X182294571Y-115015142D01*
X182294571Y-114979428D01*
X182330285Y-114908000D01*
X182401714Y-114872285D01*
X182508857Y-114872285D01*
X182580285Y-114836571D01*
X182616000Y-114765142D01*
X182616000Y-114729428D01*
X182580285Y-114658000D01*
X182508857Y-114622285D01*
X182401714Y-114622285D01*
X182330285Y-114658000D01*
X182080285Y-114622285D02*
X181794571Y-114622285D01*
X181973142Y-114372285D02*
X181973142Y-115015142D01*
X181937428Y-115086571D01*
X181866000Y-115122285D01*
X181794571Y-115122285D01*
X181437428Y-115122285D02*
X181508857Y-115086571D01*
X181544571Y-115050857D01*
X181580285Y-114979428D01*
X181580285Y-114765142D01*
X181544571Y-114693714D01*
X181508857Y-114658000D01*
X181437428Y-114622285D01*
X181330285Y-114622285D01*
X181258857Y-114658000D01*
X181223142Y-114693714D01*
X181187428Y-114765142D01*
X181187428Y-114979428D01*
X181223142Y-115050857D01*
X181258857Y-115086571D01*
X181330285Y-115122285D01*
X181437428Y-115122285D01*
X180866000Y-115122285D02*
X180866000Y-114622285D01*
X180866000Y-114693714D02*
X180830285Y-114658000D01*
X180758857Y-114622285D01*
X180651714Y-114622285D01*
X180580285Y-114658000D01*
X180544571Y-114729428D01*
X180544571Y-115122285D01*
X180544571Y-114729428D02*
X180508857Y-114658000D01*
X180437428Y-114622285D01*
X180330285Y-114622285D01*
X180258857Y-114658000D01*
X180223142Y-114729428D01*
X180223142Y-115122285D01*
X179294571Y-115122285D02*
X179294571Y-114372285D01*
X179294571Y-114658000D02*
X179223142Y-114622285D01*
X179080285Y-114622285D01*
X179008857Y-114658000D01*
X178973142Y-114693714D01*
X178937428Y-114765142D01*
X178937428Y-114979428D01*
X178973142Y-115050857D01*
X179008857Y-115086571D01*
X179080285Y-115122285D01*
X179223142Y-115122285D01*
X179294571Y-115086571D01*
X178508857Y-115122285D02*
X178580285Y-115086571D01*
X178616000Y-115050857D01*
X178651714Y-114979428D01*
X178651714Y-114765142D01*
X178616000Y-114693714D01*
X178580285Y-114658000D01*
X178508857Y-114622285D01*
X178401714Y-114622285D01*
X178330285Y-114658000D01*
X178294571Y-114693714D01*
X178258857Y-114765142D01*
X178258857Y-114979428D01*
X178294571Y-115050857D01*
X178330285Y-115086571D01*
X178401714Y-115122285D01*
X178508857Y-115122285D01*
X177616000Y-115122285D02*
X177616000Y-114729428D01*
X177651714Y-114658000D01*
X177723142Y-114622285D01*
X177866000Y-114622285D01*
X177937428Y-114658000D01*
X177616000Y-115086571D02*
X177687428Y-115122285D01*
X177866000Y-115122285D01*
X177937428Y-115086571D01*
X177973142Y-115015142D01*
X177973142Y-114943714D01*
X177937428Y-114872285D01*
X177866000Y-114836571D01*
X177687428Y-114836571D01*
X177616000Y-114800857D01*
X177258857Y-115122285D02*
X177258857Y-114622285D01*
X177258857Y-114765142D02*
X177223142Y-114693714D01*
X177187428Y-114658000D01*
X177116000Y-114622285D01*
X177044571Y-114622285D01*
X176473142Y-115122285D02*
X176473142Y-114372285D01*
X176473142Y-115086571D02*
X176544571Y-115122285D01*
X176687428Y-115122285D01*
X176758857Y-115086571D01*
X176794571Y-115050857D01*
X176830285Y-114979428D01*
X176830285Y-114765142D01*
X176794571Y-114693714D01*
X176758857Y-114658000D01*
X176687428Y-114622285D01*
X176544571Y-114622285D01*
X176473142Y-114658000D01*
X175544571Y-115122285D02*
X175544571Y-114372285D01*
X175544571Y-114658000D02*
X175473142Y-114622285D01*
X175330285Y-114622285D01*
X175258857Y-114658000D01*
X175223142Y-114693714D01*
X175187428Y-114765142D01*
X175187428Y-114979428D01*
X175223142Y-115050857D01*
X175258857Y-115086571D01*
X175330285Y-115122285D01*
X175473142Y-115122285D01*
X175544571Y-115086571D01*
X174937428Y-114622285D02*
X174758857Y-115122285D01*
X174580285Y-114622285D02*
X174758857Y-115122285D01*
X174830285Y-115300857D01*
X174866000Y-115336571D01*
X174937428Y-115372285D01*
X173401714Y-115122285D02*
X173401714Y-114372285D01*
X173401714Y-115086571D02*
X173473142Y-115122285D01*
X173616000Y-115122285D01*
X173687428Y-115086571D01*
X173723142Y-115050857D01*
X173758857Y-114979428D01*
X173758857Y-114765142D01*
X173723142Y-114693714D01*
X173687428Y-114658000D01*
X173616000Y-114622285D01*
X173473142Y-114622285D01*
X173401714Y-114658000D01*
X172758857Y-115086571D02*
X172830285Y-115122285D01*
X172973142Y-115122285D01*
X173044571Y-115086571D01*
X173080285Y-115015142D01*
X173080285Y-114729428D01*
X173044571Y-114658000D01*
X172973142Y-114622285D01*
X172830285Y-114622285D01*
X172758857Y-114658000D01*
X172723142Y-114729428D01*
X172723142Y-114800857D01*
X173080285Y-114872285D01*
X172437428Y-115086571D02*
X172366000Y-115122285D01*
X172223142Y-115122285D01*
X172151714Y-115086571D01*
X172116000Y-115015142D01*
X172116000Y-114979428D01*
X172151714Y-114908000D01*
X172223142Y-114872285D01*
X172330285Y-114872285D01*
X172401714Y-114836571D01*
X172437428Y-114765142D01*
X172437428Y-114729428D01*
X172401714Y-114658000D01*
X172330285Y-114622285D01*
X172223142Y-114622285D01*
X172151714Y-114658000D01*
X171473142Y-115122285D02*
X171473142Y-114729428D01*
X171508857Y-114658000D01*
X171580285Y-114622285D01*
X171723142Y-114622285D01*
X171794571Y-114658000D01*
X171473142Y-115086571D02*
X171544571Y-115122285D01*
X171723142Y-115122285D01*
X171794571Y-115086571D01*
X171830285Y-115015142D01*
X171830285Y-114943714D01*
X171794571Y-114872285D01*
X171723142Y-114836571D01*
X171544571Y-114836571D01*
X171473142Y-114800857D01*
X171151714Y-115086571D02*
X171080285Y-115122285D01*
X170937428Y-115122285D01*
X170866000Y-115086571D01*
X170830285Y-115015142D01*
X170830285Y-114979428D01*
X170866000Y-114908000D01*
X170937428Y-114872285D01*
X171044571Y-114872285D01*
X171116000Y-114836571D01*
X171151714Y-114765142D01*
X171151714Y-114729428D01*
X171116000Y-114658000D01*
X171044571Y-114622285D01*
X170937428Y-114622285D01*
X170866000Y-114658000D01*
X170616000Y-114622285D02*
X170330285Y-114622285D01*
X170508857Y-114372285D02*
X170508857Y-115015142D01*
X170473142Y-115086571D01*
X170401714Y-115122285D01*
X170330285Y-115122285D01*
X169794571Y-115086571D02*
X169866000Y-115122285D01*
X170008857Y-115122285D01*
X170080285Y-115086571D01*
X170116000Y-115015142D01*
X170116000Y-114729428D01*
X170080285Y-114658000D01*
X170008857Y-114622285D01*
X169866000Y-114622285D01*
X169794571Y-114658000D01*
X169758857Y-114729428D01*
X169758857Y-114800857D01*
X170116000Y-114872285D01*
X169437428Y-115122285D02*
X169437428Y-114622285D01*
X169437428Y-114765142D02*
X169401714Y-114693714D01*
X169366000Y-114658000D01*
X169294571Y-114622285D01*
X169223142Y-114622285D01*
X186687428Y-116367285D02*
X186687428Y-115617285D01*
X186366000Y-116367285D02*
X186366000Y-115974428D01*
X186401714Y-115903000D01*
X186473142Y-115867285D01*
X186580285Y-115867285D01*
X186651714Y-115903000D01*
X186687428Y-115938714D01*
X186116000Y-115867285D02*
X185830285Y-115867285D01*
X186008857Y-115617285D02*
X186008857Y-116260142D01*
X185973142Y-116331571D01*
X185901714Y-116367285D01*
X185830285Y-116367285D01*
X185687428Y-115867285D02*
X185401714Y-115867285D01*
X185580285Y-115617285D02*
X185580285Y-116260142D01*
X185544571Y-116331571D01*
X185473142Y-116367285D01*
X185401714Y-116367285D01*
X185151714Y-115867285D02*
X185151714Y-116617285D01*
X185151714Y-115903000D02*
X185080285Y-115867285D01*
X184937428Y-115867285D01*
X184866000Y-115903000D01*
X184830285Y-115938714D01*
X184794571Y-116010142D01*
X184794571Y-116224428D01*
X184830285Y-116295857D01*
X184866000Y-116331571D01*
X184937428Y-116367285D01*
X185080285Y-116367285D01*
X185151714Y-116331571D01*
X184508857Y-116331571D02*
X184437428Y-116367285D01*
X184294571Y-116367285D01*
X184223142Y-116331571D01*
X184187428Y-116260142D01*
X184187428Y-116224428D01*
X184223142Y-116153000D01*
X184294571Y-116117285D01*
X184401714Y-116117285D01*
X184473142Y-116081571D01*
X184508857Y-116010142D01*
X184508857Y-115974428D01*
X184473142Y-115903000D01*
X184401714Y-115867285D01*
X184294571Y-115867285D01*
X184223142Y-115903000D01*
X183866000Y-116295857D02*
X183830285Y-116331571D01*
X183866000Y-116367285D01*
X183901714Y-116331571D01*
X183866000Y-116295857D01*
X183866000Y-116367285D01*
X183866000Y-115903000D02*
X183830285Y-115938714D01*
X183866000Y-115974428D01*
X183901714Y-115938714D01*
X183866000Y-115903000D01*
X183866000Y-115974428D01*
X182973142Y-115581571D02*
X183616000Y-116545857D01*
X182187428Y-115581571D02*
X182830285Y-116545857D01*
X181616000Y-115867285D02*
X181616000Y-116474428D01*
X181651714Y-116545857D01*
X181687428Y-116581571D01*
X181758857Y-116617285D01*
X181866000Y-116617285D01*
X181937428Y-116581571D01*
X181616000Y-116331571D02*
X181687428Y-116367285D01*
X181830285Y-116367285D01*
X181901714Y-116331571D01*
X181937428Y-116295857D01*
X181973142Y-116224428D01*
X181973142Y-116010142D01*
X181937428Y-115938714D01*
X181901714Y-115903000D01*
X181830285Y-115867285D01*
X181687428Y-115867285D01*
X181616000Y-115903000D01*
X181258857Y-116367285D02*
X181258857Y-115867285D01*
X181258857Y-115617285D02*
X181294571Y-115653000D01*
X181258857Y-115688714D01*
X181223142Y-115653000D01*
X181258857Y-115617285D01*
X181258857Y-115688714D01*
X181008857Y-115867285D02*
X180723142Y-115867285D01*
X180901714Y-115617285D02*
X180901714Y-116260142D01*
X180866000Y-116331571D01*
X180794571Y-116367285D01*
X180723142Y-116367285D01*
X180473142Y-116367285D02*
X180473142Y-115617285D01*
X180151714Y-116367285D02*
X180151714Y-115974428D01*
X180187428Y-115903000D01*
X180258857Y-115867285D01*
X180366000Y-115867285D01*
X180437428Y-115903000D01*
X180473142Y-115938714D01*
X179473142Y-115867285D02*
X179473142Y-116367285D01*
X179794571Y-115867285D02*
X179794571Y-116260142D01*
X179758857Y-116331571D01*
X179687428Y-116367285D01*
X179580285Y-116367285D01*
X179508857Y-116331571D01*
X179473142Y-116295857D01*
X179116000Y-116367285D02*
X179116000Y-115617285D01*
X179116000Y-115903000D02*
X179044571Y-115867285D01*
X178901714Y-115867285D01*
X178830285Y-115903000D01*
X178794571Y-115938714D01*
X178758857Y-116010142D01*
X178758857Y-116224428D01*
X178794571Y-116295857D01*
X178830285Y-116331571D01*
X178901714Y-116367285D01*
X179044571Y-116367285D01*
X179116000Y-116331571D01*
X178437428Y-116295857D02*
X178401714Y-116331571D01*
X178437428Y-116367285D01*
X178473142Y-116331571D01*
X178437428Y-116295857D01*
X178437428Y-116367285D01*
X177758857Y-116331571D02*
X177830285Y-116367285D01*
X177973142Y-116367285D01*
X178044571Y-116331571D01*
X178080285Y-116295857D01*
X178116000Y-116224428D01*
X178116000Y-116010142D01*
X178080285Y-115938714D01*
X178044571Y-115903000D01*
X177973142Y-115867285D01*
X177830285Y-115867285D01*
X177758857Y-115903000D01*
X177330285Y-116367285D02*
X177401714Y-116331571D01*
X177437428Y-116295857D01*
X177473142Y-116224428D01*
X177473142Y-116010142D01*
X177437428Y-115938714D01*
X177401714Y-115903000D01*
X177330285Y-115867285D01*
X177223142Y-115867285D01*
X177151714Y-115903000D01*
X177116000Y-115938714D01*
X177080285Y-116010142D01*
X177080285Y-116224428D01*
X177116000Y-116295857D01*
X177151714Y-116331571D01*
X177223142Y-116367285D01*
X177330285Y-116367285D01*
X176758857Y-116367285D02*
X176758857Y-115867285D01*
X176758857Y-115938714D02*
X176723142Y-115903000D01*
X176651714Y-115867285D01*
X176544571Y-115867285D01*
X176473142Y-115903000D01*
X176437428Y-115974428D01*
X176437428Y-116367285D01*
X176437428Y-115974428D02*
X176401714Y-115903000D01*
X176330285Y-115867285D01*
X176223142Y-115867285D01*
X176151714Y-115903000D01*
X176116000Y-115974428D01*
X176116000Y-116367285D01*
X175223142Y-115581571D02*
X175866000Y-116545857D01*
X174651714Y-116367285D02*
X174651714Y-115617285D01*
X174651714Y-116331571D02*
X174723142Y-116367285D01*
X174866000Y-116367285D01*
X174937428Y-116331571D01*
X174973142Y-116295857D01*
X175008857Y-116224428D01*
X175008857Y-116010142D01*
X174973142Y-115938714D01*
X174937428Y-115903000D01*
X174866000Y-115867285D01*
X174723142Y-115867285D01*
X174651714Y-115903000D01*
X174008857Y-116331571D02*
X174080285Y-116367285D01*
X174223142Y-116367285D01*
X174294571Y-116331571D01*
X174330285Y-116260142D01*
X174330285Y-115974428D01*
X174294571Y-115903000D01*
X174223142Y-115867285D01*
X174080285Y-115867285D01*
X174008857Y-115903000D01*
X173973142Y-115974428D01*
X173973142Y-116045857D01*
X174330285Y-116117285D01*
X173687428Y-116331571D02*
X173616000Y-116367285D01*
X173473142Y-116367285D01*
X173401714Y-116331571D01*
X173366000Y-116260142D01*
X173366000Y-116224428D01*
X173401714Y-116153000D01*
X173473142Y-116117285D01*
X173580285Y-116117285D01*
X173651714Y-116081571D01*
X173687428Y-116010142D01*
X173687428Y-115974428D01*
X173651714Y-115903000D01*
X173580285Y-115867285D01*
X173473142Y-115867285D01*
X173401714Y-115903000D01*
X172723142Y-116367285D02*
X172723142Y-115974428D01*
X172758857Y-115903000D01*
X172830285Y-115867285D01*
X172973142Y-115867285D01*
X173044571Y-115903000D01*
X172723142Y-116331571D02*
X172794571Y-116367285D01*
X172973142Y-116367285D01*
X173044571Y-116331571D01*
X173080285Y-116260142D01*
X173080285Y-116188714D01*
X173044571Y-116117285D01*
X172973142Y-116081571D01*
X172794571Y-116081571D01*
X172723142Y-116045857D01*
X172401714Y-116331571D02*
X172330285Y-116367285D01*
X172187428Y-116367285D01*
X172116000Y-116331571D01*
X172080285Y-116260142D01*
X172080285Y-116224428D01*
X172116000Y-116153000D01*
X172187428Y-116117285D01*
X172294571Y-116117285D01*
X172366000Y-116081571D01*
X172401714Y-116010142D01*
X172401714Y-115974428D01*
X172366000Y-115903000D01*
X172294571Y-115867285D01*
X172187428Y-115867285D01*
X172116000Y-115903000D01*
X171866000Y-115867285D02*
X171580285Y-115867285D01*
X171758857Y-115617285D02*
X171758857Y-116260142D01*
X171723142Y-116331571D01*
X171651714Y-116367285D01*
X171580285Y-116367285D01*
X171044571Y-116331571D02*
X171116000Y-116367285D01*
X171258857Y-116367285D01*
X171330285Y-116331571D01*
X171366000Y-116260142D01*
X171366000Y-115974428D01*
X171330285Y-115903000D01*
X171258857Y-115867285D01*
X171116000Y-115867285D01*
X171044571Y-115903000D01*
X171008857Y-115974428D01*
X171008857Y-116045857D01*
X171366000Y-116117285D01*
X170687428Y-116367285D02*
X170687428Y-115867285D01*
X170687428Y-116010142D02*
X170651714Y-115938714D01*
X170616000Y-115903000D01*
X170544571Y-115867285D01*
X170473142Y-115867285D01*
X169687428Y-115581571D02*
X170330285Y-116545857D01*
X169508857Y-115867285D02*
X169330285Y-116367285D01*
X169151714Y-115867285D01*
X168580285Y-116331571D02*
X168651714Y-116367285D01*
X168794571Y-116367285D01*
X168866000Y-116331571D01*
X168901714Y-116260142D01*
X168901714Y-115974428D01*
X168866000Y-115903000D01*
X168794571Y-115867285D01*
X168651714Y-115867285D01*
X168580285Y-115903000D01*
X168544571Y-115974428D01*
X168544571Y-116045857D01*
X168901714Y-116117285D01*
X167901714Y-116331571D02*
X167973142Y-116367285D01*
X168116000Y-116367285D01*
X168187428Y-116331571D01*
X168223142Y-116295857D01*
X168258857Y-116224428D01*
X168258857Y-116010142D01*
X168223142Y-115938714D01*
X168187428Y-115903000D01*
X168116000Y-115867285D01*
X167973142Y-115867285D01*
X167901714Y-115903000D01*
X167687428Y-115867285D02*
X167401714Y-115867285D01*
X167580285Y-115617285D02*
X167580285Y-116260142D01*
X167544571Y-116331571D01*
X167473142Y-116367285D01*
X167401714Y-116367285D01*
X167044571Y-116367285D02*
X167116000Y-116331571D01*
X167151714Y-116295857D01*
X167187428Y-116224428D01*
X167187428Y-116010142D01*
X167151714Y-115938714D01*
X167116000Y-115903000D01*
X167044571Y-115867285D01*
X166937428Y-115867285D01*
X166866000Y-115903000D01*
X166830285Y-115938714D01*
X166794571Y-116010142D01*
X166794571Y-116224428D01*
X166830285Y-116295857D01*
X166866000Y-116331571D01*
X166937428Y-116367285D01*
X167044571Y-116367285D01*
X166473142Y-116367285D02*
X166473142Y-115867285D01*
X166473142Y-116010142D02*
X166437428Y-115938714D01*
X166401714Y-115903000D01*
X166330285Y-115867285D01*
X166258857Y-115867285D01*
X165866000Y-115617285D02*
X165794571Y-115617285D01*
X165723142Y-115653000D01*
X165687428Y-115688714D01*
X165651714Y-115760142D01*
X165616000Y-115903000D01*
X165616000Y-116081571D01*
X165651714Y-116224428D01*
X165687428Y-116295857D01*
X165723142Y-116331571D01*
X165794571Y-116367285D01*
X165866000Y-116367285D01*
X165937428Y-116331571D01*
X165973142Y-116295857D01*
X166008857Y-116224428D01*
X166044571Y-116081571D01*
X166044571Y-115903000D01*
X166008857Y-115760142D01*
X165973142Y-115688714D01*
X165937428Y-115653000D01*
X165866000Y-115617285D01*
X164973142Y-115617285D02*
X165116000Y-115617285D01*
X165187428Y-115653000D01*
X165223142Y-115688714D01*
X165294571Y-115795857D01*
X165330285Y-115938714D01*
X165330285Y-116224428D01*
X165294571Y-116295857D01*
X165258857Y-116331571D01*
X165187428Y-116367285D01*
X165044571Y-116367285D01*
X164973142Y-116331571D01*
X164937428Y-116295857D01*
X164901714Y-116224428D01*
X164901714Y-116045857D01*
X164937428Y-115974428D01*
X164973142Y-115938714D01*
X165044571Y-115903000D01*
X165187428Y-115903000D01*
X165258857Y-115938714D01*
X165294571Y-115974428D01*
X165330285Y-116045857D01*
X164258857Y-116331571D02*
X164330285Y-116367285D01*
X164473142Y-116367285D01*
X164544571Y-116331571D01*
X164580285Y-116295857D01*
X164616000Y-116224428D01*
X164616000Y-116010142D01*
X164580285Y-115938714D01*
X164544571Y-115903000D01*
X164473142Y-115867285D01*
X164330285Y-115867285D01*
X164258857Y-115903000D01*
X163937428Y-116081571D02*
X163366000Y-116081571D01*
X163008857Y-116367285D02*
X163008857Y-115867285D01*
X163008857Y-116010142D02*
X162973142Y-115938714D01*
X162937428Y-115903000D01*
X162866000Y-115867285D01*
X162794571Y-115867285D01*
X162223142Y-115867285D02*
X162223142Y-116474428D01*
X162258857Y-116545857D01*
X162294571Y-116581571D01*
X162366000Y-116617285D01*
X162473142Y-116617285D01*
X162544571Y-116581571D01*
X162223142Y-116331571D02*
X162294571Y-116367285D01*
X162437428Y-116367285D01*
X162508857Y-116331571D01*
X162544571Y-116295857D01*
X162580285Y-116224428D01*
X162580285Y-116010142D01*
X162544571Y-115938714D01*
X162508857Y-115903000D01*
X162437428Y-115867285D01*
X162294571Y-115867285D01*
X162223142Y-115903000D01*
X161866000Y-116367285D02*
X161866000Y-115617285D01*
X161866000Y-115903000D02*
X161794571Y-115867285D01*
X161651714Y-115867285D01*
X161580285Y-115903000D01*
X161544571Y-115938714D01*
X161508857Y-116010142D01*
X161508857Y-116224428D01*
X161544571Y-116295857D01*
X161580285Y-116331571D01*
X161651714Y-116367285D01*
X161794571Y-116367285D01*
X161866000Y-116331571D01*
X161223142Y-115688714D02*
X161187428Y-115653000D01*
X161116000Y-115617285D01*
X160937428Y-115617285D01*
X160866000Y-115653000D01*
X160830285Y-115688714D01*
X160794571Y-115760142D01*
X160794571Y-115831571D01*
X160830285Y-115938714D01*
X161258857Y-116367285D01*
X160794571Y-116367285D01*
X160580285Y-115867285D02*
X160294571Y-115867285D01*
X160473142Y-115617285D02*
X160473142Y-116260142D01*
X160437428Y-116331571D01*
X160366000Y-116367285D01*
X160294571Y-116367285D01*
X160116000Y-115867285D02*
X159937428Y-116367285D01*
X159758857Y-115867285D01*
X158937428Y-115581571D02*
X159580285Y-116545857D01*
M02*
