M48
METRIC,TZ
T1C0.400
T2C0.800
T3C1.000
%
G90
G05
T1
X97536Y-100584
X99060Y-109474
X100393Y-114427
X100584Y-118872
X101092Y-100330
X101600Y-109918
X103251Y-114744
X103442Y-105156
X104712Y-105029
X105791Y-109347
X108458Y-122936
X109601Y-120777
X114300Y-98298
X114808Y-105410
X115316Y-111506
X116078Y-100330
X117856Y-108204
X118872Y-110744
X118872Y-115773
X121412Y-102616
X121666Y-116078
X124206Y-102616
X124206Y-116078
X126492Y-102616
X127381Y-100203
X127635Y-108839
X127762Y-116078
X129032Y-98044
X129159Y-102235
X131826Y-102362
X131826Y-116713
X133858Y-96774
X134620Y-123190
X136144Y-108966
X136398Y-122936
X137414Y-121666
X139700Y-121539
X140970Y-98806
X143510Y-104394
X151638Y-99568
X152146Y-104394
X153289Y-110744
X153416Y-107950
X157734Y-121666
X158496Y-111506
X162814Y-109982
X162814Y-111506
X165100Y-97790
X165862Y-123190
X167259Y-107696
X167386Y-112522
X170974Y-108441
X171704Y-110744
X171704Y-112268
X173736Y-99568
X175260Y-96774
X179832Y-100076
X183896Y-100330
X184912Y-106934
X188214Y-112014
T2
X139700Y-108458
X142240Y-108458
X144780Y-108458
X149479Y-115189
X149479Y-120069
X139700Y-102870
X142240Y-102870
X144780Y-102870
X139700Y-97282
X142240Y-97282
X144780Y-97282
T3
X189865Y-109220
X189865Y-114300
X154940Y-121285
X102743Y-121920
X99568Y-121920
X182245Y-121285
X178435Y-121285
X105918Y-97155
X186055Y-121285
X189865Y-104140
X188595Y-96520
X111252Y-97790
X111252Y-100330
X111252Y-102870
X111252Y-105410
X111252Y-107950
X111252Y-110490
X111252Y-113030
X111252Y-115570
X111252Y-118110
X183515Y-96520
X105918Y-121920
X154940Y-96520
X178435Y-96520
X174625Y-121285
X189865Y-121285
X99568Y-97155
X102743Y-97155
T0
M30
